<?xml version="1.0" standalone="no"?>
<!DOCTYPE svg PUBLIC "-//W3C//DTD SVG 1.1//EN" "http://www.w3.org/Graphics/SVG/1.1/DTD/svg11.dtd" >
<svg xmlns="http://www.w3.org/2000/svg" xmlns:xlink="http://www.w3.org/1999/xlink" version="1.1">
<metadata>
Created by FontForge 20160405 at Tue Jul 25 22:38:15 2017
 By www-data
(c) Copyright 1998, 2012, Neufville Digital.  ALL RIGHTS RESERVED. This font is licensed, not sold, and may not be reproduced without the written consent of Neufville Digital. Parts (c) Visualogik Technology &#38; Design, 1998, 2012. The digitally encoded machine readable outline data for producing the typefaces licensed to you is copyrighted (c), 2012 by and the property of Novatype, a subsidiary of VISINOVA bv.
Futura is a registered trademark of Bauer Types SA. Unauthorised use prohibited. ALL RIGHTS RESERVED. Neufville Digital is a trademark of Visualogik/Novatype, used with the permission of Neufville SL.
</metadata>
<defs>
<font id="FuturaNDforNike365Cn-XBd" horiz-adv-x="602" >
  <font-face 
    font-family="Futura ND for Nike 365 Cn XBd"
    font-weight="800"
    font-stretch="normal"
    units-per-em="1000"
    panose-1="2 11 8 6 2 2 4 3 2 4"
    ascent="800"
    descent="-200"
    x-height="528"
    cap-height="754"
    bbox="-181 -270 1112 1044"
    underline-thickness="49"
    underline-position="-146"
    unicode-range="U+000D-FB02"
  />
<missing-glyph horiz-adv-x="500" 
 />
    <glyph glyph-name=".notdef" horiz-adv-x="500" 
 />
    <glyph glyph-name=".null" horiz-adv-x="0" 
 />
    <glyph glyph-name=".null" horiz-adv-x="0" 
 />
    <glyph glyph-name="nonmarkingreturn" unicode="&#xd;" horiz-adv-x="0" 
 />
    <glyph glyph-name="space" unicode=" " horiz-adv-x="301" 
 />
    <glyph glyph-name="exclam" unicode="!" horiz-adv-x="364" 
d="M282 270h-199v527h199v-527zM68 103q0 24 9 44.5t24.5 36.5t36 25t44.5 9t44.5 -9t36.5 -25t25 -36.5t9 -44.5t-9 -44.5t-25 -36t-36.5 -24.5t-44.5 -9t-44.5 9t-36 24.5t-24.5 36t-9 44.5z" />
    <glyph glyph-name="quotedbl" unicode="&#x22;" horiz-adv-x="458" 
d="M188 443h-126l-26 311h179zM396 443h-126l-27 311h180z" />
    <glyph glyph-name="numbersign" unicode="#" 
d="M514 338v-111h-85l-28 -227h-116l28 227h-61l-27 -227h-116l28 227h-73v111h87l11 92h-72v112h86l26 212h115l-26 -212h61l26 212h116l-26 -212h70v-112h-84l-11 -92h71zM338 430h-61l-11 -92h61z" />
    <glyph glyph-name="dollar" unicode="$" 
d="M267 -107v94h-7q-72 0 -153 32v236q61 -82 130 -82q26 0 42.5 14t16.5 35q0 30 -36 59l-33 26q-66 51 -94.5 100.5t-28.5 112.5q0 42 12 80.5t33.5 69.5t51.5 54t66 34v104h86v-95q62 -5 126 -38v-230q-25 38 -56.5 60.5t-62.5 22.5q-23 0 -38.5 -13.5t-15.5 -32.5
q0 -30 41 -60l33 -24q64 -47 92 -95.5t28 -113.5q0 -85 -40 -148t-107 -91v-111h-86z" />
    <glyph glyph-name="percent" unicode="%" horiz-adv-x="780" 
d="M750 173q0 -41 -11.5 -75t-33 -58.5t-52 -38t-67.5 -13.5t-67.5 13.5t-52 38t-33 58.5t-11.5 75t11.5 75t33 58.5t52 38t67.5 13.5t67.5 -13.5t52 -38t33 -58.5t11.5 -75zM618 173q0 73 -32 73t-32 -73q0 -74 32 -74t32 74zM161 -26l-78 56l533 755l81 -57zM358 581
q0 -41 -11.5 -75t-33 -58.5t-52 -38t-67.5 -13.5t-67.5 13.5t-52 38t-33 58.5t-11.5 75t11.5 75t33 58.5t52 38t67.5 13.5t67.5 -13.5t52 -38t33 -58.5t11.5 -75zM226 581q0 73 -32 73t-32 -73q0 -74 32 -74t32 74z" />
    <glyph glyph-name="ampersand" unicode="&#x26;" horiz-adv-x="712" 
d="M701 0h-220l-29 41q-83 -54 -168 -54q-48 0 -91.5 18t-76.5 49.5t-52 74t-19 91.5q0 125 130 199q-58 76 -58 148q0 42 16.5 78.5t45 63.5t67 43t81.5 16q47 0 88.5 -16.5t73 -44.5t49.5 -65t18 -78q0 -114 -129 -196l74 -97q26 27 71 86l103 -138q-21 -24 -40 -42.5
t-37 -35.5zM274 280q-36 -21 -36 -56q0 -26 17 -44.5t42 -18.5q27 0 51 21zM337 498q47 45 47 75q0 17 -12 28.5t-29 11.5t-29.5 -11.5t-12.5 -28.5q0 -23 36 -75z" />
    <glyph glyph-name="quotesingle" unicode="'" horiz-adv-x="251" 
d="M188 443h-126l-26 311h179z" />
    <glyph glyph-name="parenleft" unicode="(" horiz-adv-x="378" 
d="M341 750q-54 -106 -83.5 -225t-29.5 -231q0 -56 8 -114t22.5 -116.5t35.5 -115t47 -108.5l-147 -79q-141 255 -141 533q0 279 141 534z" />
    <glyph glyph-name="parenright" unicode=")" horiz-adv-x="378" 
d="M38 -160q54 107 83 224.5t29 229.5q0 116 -29.5 231.5t-82.5 224.5l146 78q142 -255 142 -534q0 -140 -35.5 -272.5t-106.5 -260.5z" />
    <glyph glyph-name="asterisk" unicode="*" 
d="M237 825h128l-8 -124l116 45l40 -121l-121 -32l80 -96l-104 -76l-67 106l-67 -106l-104 76l79 96l-120 31l39 122l117 -45z" />
    <glyph glyph-name="plus" unicode="+" 
d="M52 326v117h188v202h121v-202h188v-117h-188v-201h-121v201h-188z" />
    <glyph glyph-name="comma" unicode="," horiz-adv-x="301" 
d="M287 180l-132 -362h-161l92 362h201z" />
    <glyph glyph-name="hyphen" unicode="-" horiz-adv-x="245" 
d="M245 196h-245v151h245v-151z" />
    <glyph glyph-name="period" unicode="." horiz-adv-x="301" 
d="M36 103q0 24 9 44.5t24.5 36t36 24.5t44.5 9t44.5 -9t36 -24.5t24.5 -36t9 -44.5t-9 -44.5t-24.5 -36t-36 -24.5t-44.5 -9t-44.5 9t-36 24.5t-24.5 36t-9 44.5z" />
    <glyph glyph-name="slash" unicode="/" horiz-adv-x="668" 
d="M110 -239l-106 60l539 1007l106 -57z" />
    <glyph glyph-name="zero" unicode="0" 
d="M567 378q0 -88 -18 -160t-52 -123.5t-83.5 -79.5t-112.5 -28t-112.5 28t-83.5 79.5t-52 123.5t-18 160t18 160t52 123t83.5 79t112.5 28t112.5 -28t83.5 -79t52 -123t18 -160zM367 378q0 109 -16 161.5t-50 52.5t-50 -52.5t-16 -161.5q0 -215 66 -215t66 215z" />
    <glyph glyph-name="one" unicode="1" 
d="M436 0h-204v577h-81v177h285v-754z" />
    <glyph glyph-name="two" unicode="2" 
d="M551 0h-519l206 275q35 47 59 82.5t38.5 65t20.5 56t6 54.5q0 31 -12.5 49t-35.5 18q-48 0 -48 -92v-11.5t1 -16.5h-197q-1 7 -1.5 15.5t-0.5 15.5q0 57 19 104.5t53 81.5t80 52.5t99 18.5q51 0 95.5 -17.5t77 -50t51 -78t18.5 -101.5q0 -45 -11 -87t-35 -84.5t-61.5 -87
t-90.5 -95.5q91 6 188 6v-173z" />
    <glyph glyph-name="three" unicode="3" 
d="M243 222q0 -68 50 -68q25 0 40.5 19t15.5 51q0 79 -83 79q-6 0 -14.5 -0.5t-20.5 -1.5v160q9 0 14.5 -0.5t10.5 -0.5q83 0 83 77q0 63 -43 63q-17 0 -28.5 -12.5t-11.5 -38.5v-10h-197q4 52 23 94.5t50.5 72.5t74.5 46t96 16q49 0 92 -17t75 -47t50 -70t18 -86
q0 -104 -91 -158q101 -59 101 -175q0 -50 -18.5 -92t-52.5 -72t-81 -47t-104 -17q-55 0 -100.5 16t-78.5 45.5t-51 70.5t-18 91v12h199z" />
    <glyph glyph-name="four" unicode="4" 
d="M507 0h-203v153h-274v159l228 442h249v-439h65v-162h-65v-153zM313 315v141q0 10 1.5 31.5t3.5 54.5q-7 -16 -14.5 -32t-15.5 -32l-90 -163h115z" />
    <glyph glyph-name="five" unicode="5" 
d="M78 224q89 -52 161 -52q48 0 76.5 24t28.5 60q0 41 -32 63t-89 22q-63 0 -133 -27l59 440h375v-177h-215l-16 -85q11 1 19 1.5t15 0.5q45 0 85 -17.5t70 -49t47.5 -74.5t17.5 -93q0 -58 -22 -108t-60 -86.5t-90.5 -57.5t-113.5 -21q-106 0 -207 58z" />
    <glyph glyph-name="six" unicode="6" 
d="M457 754l-121 -214q-8 -13 -16.5 -28t-20.5 -32q40 21 72 21q39 0 73 -19t59 -51.5t39.5 -76.5t14.5 -94q0 -59 -18.5 -109t-53 -86.5t-83 -57t-108.5 -20.5q-56 0 -101 20t-77.5 56t-50 86t-17.5 110q0 131 121 363l69 132h219zM361 253q0 101 -58 101q-56 0 -56 -101
q0 -104 56 -104q58 0 58 104z" />
    <glyph glyph-name="seven" unicode="7" 
d="M263 0h-219l182 401q20 45 44 88t53 88h-256v177h535z" />
    <glyph glyph-name="eight" unicode="8" 
d="M441 393q64 -26 90.5 -70.5t26.5 -108.5q0 -49 -19.5 -90.5t-53.5 -72t-81.5 -47.5t-102.5 -17q-56 0 -103 17t-81 47.5t-53.5 72t-19.5 90.5q0 126 128 179q-27 13 -48.5 28t-35.5 34t-21.5 43t-7.5 55q0 45 18.5 84.5t50.5 68.5t76.5 45.5t96.5 16.5t96.5 -16.5
t77 -45.5t51 -68.5t18.5 -84.5q0 -31 -6 -55t-18.5 -43t-32 -34t-46.5 -28zM351 236q0 34 -13.5 55.5t-36.5 21.5t-36.5 -21.5t-13.5 -55.5t13.5 -54.5t36.5 -20.5t36.5 20.5t13.5 54.5zM344 540q0 65 -43 65q-41 0 -41 -65q0 -32 10 -49t31 -17t32 17t11 49z" />
    <glyph glyph-name="nine" unicode="9" 
d="M145 1l121 214q8 13 16.5 28t20.5 32q-41 -21 -72 -21q-39 0 -73 19t-59 51.5t-39.5 76.5t-14.5 94q0 59 18.5 109t53 86.5t83 57t108.5 20.5q55 0 100.5 -20t78 -56t50 -86t17.5 -110q0 -131 -121 -363l-69 -132h-219zM241 502q0 -101 58 -101q56 0 56 101
q0 104 -56 104q-58 0 -58 -104z" />
    <glyph glyph-name="colon" unicode=":" horiz-adv-x="301" 
d="M36 425q0 24 9 44.5t24.5 36t36 24.5t44.5 9t44.5 -9t36 -24.5t24.5 -36t9 -44.5t-9 -44.5t-24.5 -36t-36 -24.5t-44.5 -9t-44.5 9t-36 24.5t-24.5 36t-9 44.5zM36 103q0 24 9 44.5t24.5 36t36 24.5t44.5 9t44.5 -9t36 -24.5t24.5 -36t9 -44.5t-9 -44.5t-24.5 -36
t-36 -24.5t-44.5 -9t-44.5 9t-36 24.5t-24.5 36t-9 44.5z" />
    <glyph glyph-name="semicolon" unicode=";" horiz-adv-x="301" 
d="M287 180l-132 -362h-161l92 362h201zM78 425q0 24 9 44.5t24.5 36t36 24.5t44.5 9t44.5 -9t36 -24.5t24.5 -36t9 -44.5t-9 -44.5t-24.5 -36t-36 -24.5t-44.5 -9t-44.5 9t-36 24.5t-24.5 36t-9 44.5z" />
    <glyph glyph-name="less" unicode="&#x3c;" 
d="M546 743v-213l-264 -148l262 -149v-211l-488 272v178z" />
    <glyph glyph-name="equal" unicode="=" 
d="M44 416v106h513v-106h-513zM44 247v106h513v-106h-513z" />
    <glyph glyph-name="greater" unicode="&#x3e;" 
d="M56 22v213l263 148l-262 149v211l489 -271v-179z" />
    <glyph glyph-name="question" unicode="?" horiz-adv-x="575" 
d="M385 273h-194v185q11 -1 18.5 -1.5t12.5 -0.5q56 0 81 23.5t25 75.5q0 84 -44 84q-42 0 -42 -86h-197q0 121 63.5 187.5t176.5 66.5q53 0 98 -19t77.5 -52t51 -78.5t18.5 -98.5q0 -83 -37 -136t-108 -72v-78zM176 103q0 24 9 44.5t24.5 36t36 24.5t44.5 9t44.5 -9
t36 -24.5t24.5 -36t9 -44.5t-9 -44.5t-24.5 -36t-36 -24.5t-44.5 -9t-44.5 9t-36 24.5t-24.5 36t-9 44.5z" />
    <glyph glyph-name="at" unicode="@" horiz-adv-x="784" 
d="M569 415l-29 -248q-3 -23 -3 -45q0 -30 17 -30q16 0 31 15.5t27 40.5t19 56t7 62q0 53 -17.5 98.5t-48 78.5t-72.5 51.5t-91 18.5q-54 0 -100 -23t-80.5 -62.5t-54 -93.5t-19.5 -116t19.5 -115.5t54 -93.5t81.5 -62.5t103 -22.5q116 0 215 60l44 -84q-7 -3 -9 -5l-9 -5
q-116 -61 -231 -61q-85 0 -154 30.5t-118 83.5t-75.5 124t-26.5 151q0 82 27.5 153t76 123.5t114.5 82.5t142 30q68 0 127.5 -26t104 -71t70 -106t25.5 -131q0 -55 -15 -104t-40.5 -86t-59.5 -59t-72 -22q-44 0 -75 47q-52 -49 -99 -49q-31 0 -57 15.5t-45 42.5t-29.5 64
t-10.5 79q0 47 13 88t36 71t54 47t67 17q40 0 75 -31l5 22h86zM461 232q0 37 -13.5 64.5t-37.5 27.5q-15 0 -28 -10t-22 -27.5t-14.5 -41t-5.5 -50.5q0 -42 13 -69t36 -27q14 0 27 11t23 30t16 42.5t6 49.5z" />
    <glyph glyph-name="A" unicode="A" horiz-adv-x="599" 
d="M594 0h-210l-17 96h-135l-17 -96h-210l174 754h242zM343 257l-29 203q-3 19 -6 45t-8 69q-5 -43 -7.5 -69t-5.5 -45l-31 -203h87z" />
    <glyph glyph-name="B" unicode="B" horiz-adv-x="600" 
d="M53 754h237q67 0 116.5 -16t81.5 -44.5t47.5 -68t15.5 -85.5q0 -141 -140 -153q81 -12 117.5 -52.5t36.5 -118.5q0 -48 -16.5 -88t-46.5 -68.5t-72 -44t-92 -15.5h-285v754zM256 164q6 -1 10.5 -1h7.5q38 0 60.5 19.5t22.5 53.5t-22.5 53t-62.5 19h-16v-144zM256 461h14
q37 0 58 17t21 48q0 65 -72 65h-8t-13 -1v-129z" />
    <glyph glyph-name="C" unicode="C" horiz-adv-x="503" 
d="M465 14q-68 -27 -122 -27q-68 0 -124.5 26.5t-97.5 77t-64 122.5t-23 164q0 87 23.5 159t67 123.5t105 80t137.5 28.5q26 0 50.5 -5t50.5 -14v-215q-47 45 -93 45q-65 0 -99 -54t-34 -148q0 -91 33 -142.5t96 -51.5q53 0 106 49z" />
    <glyph glyph-name="D" unicode="D" horiz-adv-x="608" 
d="M53 754h176q87 0 152 -28.5t107.5 -79t64 -120t21.5 -150.5q0 -85 -19.5 -154.5t-60.5 -118.5t-103.5 -76t-147.5 -27h-190v754zM256 182q110 6 110 189q0 91 -28.5 143t-74.5 52h-7v-384z" />
    <glyph glyph-name="E" unicode="E" horiz-adv-x="465" 
d="M53 0v754h378v-177h-175v-110h157v-171h-157v-115h175v-181h-378z" />
    <glyph glyph-name="F" unicode="F" horiz-adv-x="439" 
d="M256 0h-203v754h360v-177h-157v-110h146v-171h-146v-296z" />
    <glyph glyph-name="G" unicode="G" horiz-adv-x="633" 
d="M317 436h282v-31q0 -114 -18 -194t-53 -129.5t-86 -72t-117 -22.5q-69 0 -123 27t-91.5 77.5t-57 122.5t-19.5 163t20.5 163.5t58 123t91.5 77.5t121 27q177 0 258 -187l-197 -72q-5 35 -20 56t-47 21q-41 0 -59 -54t-18 -155t18 -155t59 -54q32 0 51.5 29.5t19.5 79.5
h-73v159z" />
    <glyph glyph-name="H" unicode="H" horiz-adv-x="610" 
d="M557 0h-203v303h-98v-303h-203v754h203v-267h98v267h203v-754z" />
    <glyph glyph-name="I" unicode="I" horiz-adv-x="309" 
d="M256 0h-203v754h203v-754z" />
    <glyph glyph-name="J" unicode="J" horiz-adv-x="400" 
d="M0 222q34 -45 82 -45q62 0 62 94v483h204v-524q0 -115 -50.5 -179t-164.5 -64q-60 0 -133 24v211z" />
    <glyph glyph-name="K" unicode="K" horiz-adv-x="612" 
d="M606 0h-215l-140 348q2 -20 3.5 -39t1.5 -39v-270h-203v754h203v-256q0 -17 -1.5 -33.5t-3.5 -33.5l125 323h210l-163 -364z" />
    <glyph glyph-name="L" unicode="L" horiz-adv-x="417" 
d="M409 0h-356v754h203v-573h153v-181z" />
    <glyph glyph-name="M" unicode="M" horiz-adv-x="866" 
d="M830 0h-213l-15 344q-2 35 -2.5 68.5t-2.5 68.5q-3 -40 -8.5 -76t-11.5 -69l-64 -336h-166l-54 336q-5 33 -10 69t-8 76q-1 -35 -3 -68.5t-4 -68.5l-17 -344h-216l88 754h253l46 -273q5 -29 8 -60.5t6 -67.5q3 35 7.5 67t9.5 61l52 273h251z" />
    <glyph glyph-name="N" unicode="N" horiz-adv-x="637" 
d="M53 0v754h194l106 -277q8 -21 15.5 -45t15 -47.5t13.5 -45.5t11 -40q-6 79 -12.5 148.5t-6.5 114.5v192h195v-754h-195l-102 277q-32 86 -52 158q6 -79 9 -138.5t3 -104.5v-192h-194z" />
    <glyph glyph-name="O" unicode="O" horiz-adv-x="642" 
d="M608 377q0 -87 -20.5 -159t-58.5 -123.5t-91 -79.5t-117 -28q-65 0 -117.5 28t-90.5 79.5t-58.5 123.5t-20.5 159t20.5 159t58.5 123.5t90.5 80t117.5 28.5q64 0 117 -28.5t91 -80t58.5 -123.5t20.5 -159zM397 377q0 97 -20 149t-56 52t-56 -52t-20 -149t20 -148.5
t56 -51.5t56 51.5t20 148.5z" />
    <glyph glyph-name="P" unicode="P" horiz-adv-x="571" 
d="M256 0h-203v754h197q81 0 138 -19t94 -52.5t54 -81t17 -104.5q0 -56 -15 -102t-47.5 -79t-82.5 -51t-120 -18h-32v-247zM256 414h19q34 0 55.5 22.5t21.5 62.5q0 35 -19.5 61.5t-57.5 26.5h-19v-173z" />
    <glyph glyph-name="Q" unicode="Q" horiz-adv-x="649" 
d="M608 377q0 -91 -22 -165t-63 -126l92 -101l-163 -89l-68 99q-32 -8 -63 -8q-65 0 -117.5 28t-90.5 79.5t-58.5 123.5t-20.5 159t20.5 159t58.5 123.5t90.5 80t117.5 28.5q64 0 117 -28.5t91 -80t58.5 -123.5t20.5 -159zM397 377q0 97 -20 149t-56 52t-56 -52t-20 -149
t20 -148.5t56 -51.5t56 51.5t20 148.5z" />
    <glyph glyph-name="R" unicode="R" horiz-adv-x="604" 
d="M589 0h-220l-113 309v-309h-203v754h197q82 0 139.5 -18.5t93.5 -51.5t52.5 -79.5t16.5 -102.5q0 -137 -115 -189zM256 408h14q40 0 61 23.5t21 66.5t-21 66t-61 23h-14v-179z" />
    <glyph glyph-name="S" unicode="S" horiz-adv-x="457" 
d="M37 255q61 -82 130 -82q26 0 42.5 14t16.5 35q0 30 -36 59l-33 26q-66 51 -94.5 100.5t-28.5 112.5q0 52 17.5 97t48.5 78.5t73 53t90 19.5q72 0 146 -39v-230q-25 38 -56.5 60.5t-62.5 22.5q-23 0 -38.5 -13.5t-15.5 -32.5q0 -30 41 -60l33 -24q64 -47 92 -95.5
t28 -113.5q0 -56 -18 -102.5t-49.5 -81t-76 -53.5t-96.5 -19q-72 0 -153 32v236z" />
    <glyph glyph-name="T" unicode="T" horiz-adv-x="434" 
d="M319 0h-204v573h-115v181h434v-181h-115v-573z" />
    <glyph glyph-name="U" unicode="U" horiz-adv-x="618" 
d="M565 754v-504q0 -65 -18.5 -114t-52 -82t-80.5 -50t-104 -17t-104.5 17t-81 50t-52.5 82t-19 114v504h204v-486q0 -50 12 -70.5t41 -20.5t40 20.5t11 70.5v486h204z" />
    <glyph glyph-name="V" unicode="V" horiz-adv-x="586" 
d="M396 0h-207l-189 754h214l37 -215q11 -63 23 -131.5t19 -145.5q7 77 19 145.5t23 131.5l37 215h214z" />
    <glyph glyph-name="W" unicode="W" horiz-adv-x="852" 
d="M684 0h-190l-38 264q-3 19 -5.5 38.5t-6.5 43t-8 54t-10 72.5q-6 -42 -10 -72.5t-8 -54t-6.5 -43t-5.5 -38.5l-38 -264h-190l-168 754h199l37 -234q8 -49 14 -109.5t12 -137.5q9 87 19.5 162t22.5 138l34 181h176l34 -181q24 -128 42 -300q6 77 12 137.5t14 109.5l37 234
h199z" />
    <glyph glyph-name="X" unicode="X" horiz-adv-x="584" 
d="M584 0h-226l-36 99q-10 28 -17.5 54t-12.5 49q-6 -23 -13.5 -48.5t-18.5 -54.5l-38 -99h-222l183 391l-173 363h227l34 -102q5 -14 10 -33.5t11 -42.5q6 24 11.5 43t9.5 32l30 103h228l-172 -363z" />
    <glyph glyph-name="Y" unicode="Y" horiz-adv-x="566" 
d="M391 0h-204v319l-187 435h212l37 -112q11 -32 19.5 -62.5t15.5 -58.5q7 28 15 58.5t19 62.5l37 112h211l-175 -435v-319z" />
    <glyph glyph-name="Z" unicode="Z" horiz-adv-x="582" 
d="M538 0h-519v20l176 400q27 62 48 98t37 59h-216v177h499v-20l-185 -412q-17 -39 -36 -76.5t-36 -73.5q18 7 36 8t38 1h158v-181z" />
    <glyph glyph-name="bracketleft" unicode="[" horiz-adv-x="395" 
d="M356 -100v-135h-288v1060h288v-135h-116v-790h116z" />
    <glyph glyph-name="backslash" unicode="\" horiz-adv-x="668" 
d="M558 -239l-539 1010l106 57l540 -1007z" />
    <glyph glyph-name="bracketright" unicode="]" horiz-adv-x="395" 
d="M38 690v135h288v-1060h-288v135h116v790h-116z" />
    <glyph glyph-name="asciicircum" unicode="^" horiz-adv-x="565" 
d="M194 381h-187l158 379h236l158 -379h-187l-89 234z" />
    <glyph glyph-name="underscore" unicode="_" horiz-adv-x="565" 
d="M0 -54h565v-125h-565v125z" />
    <glyph glyph-name="grave" unicode="`" horiz-adv-x="565" 
d="M343 600h-112l-99 167h158z" />
    <glyph glyph-name="a" unicode="a" horiz-adv-x="562" 
d="M517 0h-196v30q0 11 1 26t3 33q-51 -100 -134 -100q-38 0 -68 19.5t-50.5 55t-31.5 86.5t-11 114t11.5 114t33 86.5t52 55t69.5 19.5t72 -23.5t57 -71.5q-2 18 -3 31.5t-1 24.5v28h196v-528zM233 264q0 -55 12 -84t35 -29t35 29t12 84t-12 84t-35 29t-35 -29t-12 -84z
" />
    <glyph glyph-name="b" unicode="b" horiz-adv-x="562" 
d="M45 0v825h196v-289q0 -38 -3 -84q28 49 54.5 68t70.5 19q78 0 123.5 -71t45.5 -204q0 -129 -45 -202t-124 -73q-39 0 -67.5 17.5t-57.5 64.5q1 -9 2 -22.5t1 -18.5v-30h-196zM235 264q0 -55 12 -84t35 -29t35 29t12 84t-12 84t-35 29t-35 -29t-12 -84z" />
    <glyph glyph-name="c" unicode="c" horiz-adv-x="342" 
d="M320 -8q-36 -3 -53 -3q-53 0 -96.5 21t-75 58t-48.5 87.5t-17 108.5t19 108.5t52 87.5t79 58t100 21q13 0 40 -3v-177q-8 3 -18 3q-30 0 -49.5 -27.5t-19.5 -70.5t19.5 -71t49.5 -28q10 0 18 3v-176z" />
    <glyph glyph-name="d" unicode="d" horiz-adv-x="562" 
d="M320 0v30q0 5 1 18.5t2 22.5q-29 -47 -57.5 -64.5t-67.5 -17.5q-79 0 -124 73t-45 202q0 133 45.5 204t123.5 71q22 0 39 -4.5t31.5 -14.5t27.5 -27t27 -41q-3 46 -3 84v289h196v-825h-196zM326 264q0 55 -12 84t-35 29t-35 -29t-12 -84t12 -84t35 -29t35 29t12 84z" />
    <glyph glyph-name="e" unicode="e" horiz-adv-x="549" 
d="M509 170q-6 -40 -27 -73.5t-52.5 -57.5t-71 -37t-83.5 -13q-54 0 -99.5 19.5t-77.5 55.5t-50 86.5t-18 113.5t18 113.5t50 86.5t77.5 55.5t99.5 19.5t99 -19t77.5 -54.5t50 -86.5t17.5 -115q0 -8 -0.5 -20.5t-0.5 -20.5h-296q2 -42 17 -64t36 -22q17 0 28.5 10t16.5 29z
M328 322q-4 29 -16.5 49t-36.5 20t-36.5 -20t-16.5 -49h106z" />
    <glyph glyph-name="f" unicode="f" horiz-adv-x="340" 
d="M258 0h-194v370h-58v158h58v97q0 101 44 154.5t129 53.5q39 0 92 -14v-182q-27 19 -40 19q-31 0 -31 -54v-74h71v-158h-71v-370z" />
    <glyph glyph-name="g" unicode="g" horiz-adv-x="557" 
d="M517 -15q0 -108 -62.5 -169t-180.5 -61q-109 0 -165.5 46t-70.5 145h198q3 -45 43 -45q44 0 44 77v89q-25 -38 -53.5 -56t-68.5 -18q-38 0 -69.5 19.5t-54 55.5t-35 86t-12.5 110t11.5 110.5t33.5 87t53.5 57t71.5 20.5q35 0 63 -19t60 -67q-1 10 -2 22.5t-1 22.5v30h197
v-543zM233 267q0 -55 12 -84t35 -29t35 29t12 84t-12 84t-35 29t-35 -29t-12 -84z" />
    <glyph glyph-name="h" unicode="h" horiz-adv-x="555" 
d="M314 0v276q0 39 -7.5 53.5t-26.5 14.5q-39 0 -39 -78v-266h-196v825h196v-327q0 -13 -0.5 -31t-3.5 -44q27 57 59.5 86.5t78.5 29.5q66 0 100.5 -49t34.5 -130v-360h-196z" />
    <glyph glyph-name="i" unicode="i" horiz-adv-x="288" 
d="M242 0h-196v528h196v-528zM30 691q0 24 9 44.5t24.5 36.5t36 25t44.5 9t44.5 -9t36 -25t24.5 -36.5t9 -44.5t-9 -44.5t-24.5 -36t-36 -24.5t-44.5 -9t-44.5 9t-36 24.5t-24.5 36t-9 44.5z" />
    <glyph glyph-name="j" unicode="j" horiz-adv-x="288" 
d="M242 -231h-196v759h196v-759zM30 691q0 24 9 44.5t24.5 36.5t36 25t44.5 9t44.5 -9t36 -25t24.5 -36.5t9 -44.5t-9 -44.5t-24.5 -36t-36 -24.5t-44.5 -9t-44.5 9t-36 24.5t-24.5 36t-9 44.5z" />
    <glyph glyph-name="k" unicode="k" horiz-adv-x="560" 
d="M334 0l-75 205q-3 7 -7 22t-11 38v-265h-196v825h196v-535q7 20 14.5 40.5t15.5 41.5l63 156h212l-129 -242l143 -286h-226z" />
    <glyph glyph-name="l" unicode="l" horiz-adv-x="287" 
d="M241 0h-196v825h196v-825z" />
    <glyph glyph-name="m" unicode="m" horiz-adv-x="830" 
d="M584 0v276q0 39 -8 56t-27 17t-29 -22t-10 -61v-266h-196v276q0 39 -7.5 53.5t-26.5 14.5q-39 0 -39 -78v-266h-196v528h196v-28q0 -13 -0.5 -25.5t-3.5 -38.5q27 57 59.5 80t78.5 23q93 0 129 -107q27 54 60.5 80.5t79.5 26.5q63 0 99.5 -49t36.5 -130v-360h-196z" />
    <glyph glyph-name="n" unicode="n" horiz-adv-x="555" 
d="M314 0v276q0 39 -7.5 53.5t-26.5 14.5q-39 0 -39 -78v-266h-196v528h196v-30q0 -13 -0.5 -31t-3.5 -44q27 57 59.5 86.5t78.5 29.5q66 0 100.5 -49t34.5 -130v-360h-196z" />
    <glyph glyph-name="o" unicode="o" horiz-adv-x="550" 
d="M520 264q0 -63 -17.5 -113.5t-49.5 -86.5t-77 -55.5t-101 -19.5t-101 19.5t-77 55.5t-49.5 86.5t-17.5 113.5t17.5 113.5t49.5 86.5t77 55.5t101 19.5t101 -19.5t77 -55.5t49.5 -86.5t17.5 -113.5zM331 264q0 63 -16 95.5t-40 32.5t-39.5 -32.5t-15.5 -95.5t15.5 -95.5
t39.5 -32.5t40 32.5t16 95.5z" />
    <glyph glyph-name="p" unicode="p" horiz-adv-x="556" 
d="M241 528v-30q0 -10 -1 -22.5t-2 -22.5q29 48 57.5 67t67.5 19q79 0 124 -73t45 -202q0 -133 -45.5 -204t-123.5 -71q-22 0 -39 4t-31 13.5t-27 25t-28 39.5q0 -5 0.5 -12.5t1 -15.5t1 -14.5t0.5 -8.5v-255h-196v763h196zM235 264q0 -55 12 -84t35 -29t35 29t12 84t-12 84
t-35 29t-35 -29t-12 -84z" />
    <glyph glyph-name="q" unicode="q" horiz-adv-x="562" 
d="M517 528v-763h-196v255q0 2 0.5 8.5t1 14.5t1 15.5t0.5 12.5q-15 -24 -28 -39.5t-27 -25t-31 -13.5t-39 -4q-78 0 -123.5 71t-45.5 204q0 129 45 202t124 73q39 0 67.5 -19t57.5 -67q-1 10 -2 22.5t-1 22.5v30h196zM280 377q-23 0 -35 -29t-12 -84t12 -84t35 -29t35 29
t12 84t-12 84t-35 29z" />
    <glyph glyph-name="r" unicode="r" horiz-adv-x="397" 
d="M45 0v528h196v-28q0 -13 -0.5 -32t-3.5 -45q10 22 23.5 43t30.5 37t37.5 26t46.5 10h11v-220q-17 11 -32.5 15t-28.5 4q-39 0 -61.5 -28.5t-22.5 -82.5v-227h-196z" />
    <glyph glyph-name="s" unicode="s" horiz-adv-x="446" 
d="M96 189q26 -28 51.5 -41t48.5 -13q38 0 38 27q0 24 -51 42q-139 49 -139 155q0 39 16.5 72t46 57t69 37.5t85.5 13.5q77 0 157 -43l-66 -140q-20 21 -42.5 32t-38.5 11q-12 0 -23.5 -5t-11.5 -18q0 -17 15.5 -27t44.5 -23q34 -15 59 -29.5t40.5 -32t23 -39.5t7.5 -51
q0 -41 -16 -75t-44 -58.5t-67 -38t-84 -13.5q-24 0 -44 2t-41 8t-45.5 17t-56.5 28z" />
    <glyph glyph-name="t" unicode="t" horiz-adv-x="344" 
d="M266 0h-194v370h-56v158h56v155h194v-155h69v-158h-69v-370z" />
    <glyph glyph-name="u" unicode="u" horiz-adv-x="565" 
d="M241 528v-298q0 -39 8 -58.5t34 -19.5t33.5 19.5t7.5 58.5v298h196v-324q0 -50 -16.5 -90t-47.5 -68t-75 -42.5t-98 -14.5t-98 14.5t-75 42.5t-48 68t-17 90v324h196z" />
    <glyph glyph-name="v" unicode="v" horiz-adv-x="504" 
d="M346 0h-204l-142 528h196l30 -165q5 -30 12 -71t14 -98q7 57 14 98t12 71l30 165h196z" />
    <glyph glyph-name="w" unicode="w" horiz-adv-x="770" 
d="M629 0h-191l-33 184q-6 33 -11.5 69t-8.5 69q-3 -33 -8 -69t-11 -69l-34 -184h-189l-143 528h192l30 -170q5 -32 10 -68.5t10 -79.5q5 45 11 85.5t15 78.5l34 154h166l34 -154q8 -38 14.5 -78.5t11.5 -85.5q5 43 9.5 79.5t10.5 68.5l30 170h192z" />
    <glyph glyph-name="x" unicode="x" horiz-adv-x="545" 
d="M545 0h-226l-20 49q-7 16 -13.5 33t-14.5 43q-13 -37 -30 -76l-21 -49h-220l161 274l-152 254h223l19 -57q4 -11 9 -23.5t11 -33.5q7 21 11 33.5t9 23.5l22 57h217l-156 -254z" />
    <glyph glyph-name="y" unicode="y" horiz-adv-x="516" 
d="M273 -221h-194l79 241l-158 508h195l37 -152q8 -31 13 -66.5t11 -78.5q5 43 10.5 75.5t14.5 69.5l38 152h197z" />
    <glyph glyph-name="z" unicode="z" horiz-adv-x="492" 
d="M444 0h-425l128 274l22 44t28 52h-149v158h425l-124 -269q-11 -24 -24 -48.5t-28 -50.5h147v-160z" />
    <glyph glyph-name="braceleft" unicode="{" horiz-adv-x="415" 
d="M214 295q18 -12 31 -25t21.5 -29.5t12.5 -38.5t4 -52v-170q0 -26 2.5 -42t11 -24.5t24.5 -11t42 -2.5h32v-135h-92q-51 0 -86 9t-56.5 29t-31.5 52.5t-10 79.5v200q0 24 -3 40.5t-10 27.5t-19 17t-30 10v130q18 4 30 10t19 16.5t10 27t3 40.5v201q0 47 10 79.5t31.5 52.5
t56.5 29t86 9h92v-135h-32q-26 0 -42 -2.5t-24.5 -11t-11 -24.5t-2.5 -42v-170q0 -30 -4 -52t-12.5 -38.5t-21.5 -29.5t-31 -25z" />
    <glyph glyph-name="bar" unicode="|" horiz-adv-x="522" 
d="M175 754h172v-942h-172v942z" />
    <glyph glyph-name="braceright" unicode="}" horiz-adv-x="415" 
d="M201 295q-18 12 -31 25t-21.5 29.5t-12.5 38.5t-4 52v170q0 26 -2.5 42t-11 24.5t-24.5 11t-42 2.5h-32v135h92q51 0 86 -9t56.5 -29t31.5 -52.5t10 -79.5v-201q0 -24 3 -40.5t10 -27t19 -16.5t30 -10v-130q-18 -4 -30 -10t-19 -17t-10 -27.5t-3 -40.5v-200
q0 -47 -10 -79.5t-31.5 -52.5t-56.5 -29t-86 -9h-92v135h32q26 0 42 2.5t24.5 11t11 24.5t2.5 42v170q0 30 4 52t12.5 38.5t21.5 29.5t31 25z" />
    <glyph glyph-name="asciitilde" unicode="~" horiz-adv-x="754" 
d="M105 693q61 146 165 146q38 0 128 -40q69 -30 92 -30q49 0 89 73l71 -59q-32 -79 -72.5 -111.5t-102.5 -32.5q-18 0 -48.5 11t-77.5 32q-29 14 -51 20t-34 6q-47 0 -87 -74z" />
    <glyph glyph-name="uni0080" 
d="M22 487h43q13 65 40 117t66 88.5t88 56t105 19.5q13 0 35.5 -2.5t46 -7t45 -11t34.5 -14.5l-49 -181q-34 27 -83 27q-43 0 -71.5 -24t-43.5 -68h181l-21 -81h-175v-29v-15.5t1 -15.5h158l-21 -81h-121q32 -82 113 -82q26 0 45.5 6.5t37.5 20.5l49 -188
q-13 -8 -34.5 -14.5t-45 -11t-46 -7t-35.5 -2.5q-56 0 -104.5 19t-87.5 55t-66.5 87.5t-40.5 116.5h-43v81h34q-1 8 -1 15.5v15.5v29h-33v81z" />
    <glyph glyph-name="nonbreakingspace" unicode="&#xa0;" horiz-adv-x="301" 
 />
    <glyph glyph-name="exclamdown" unicode="&#xa1;" horiz-adv-x="364" 
d="M282 -234h-199v527h199v-527zM68 460q0 24 9 44.5t24.5 36t36 24.5t44.5 9t44.5 -9t36.5 -24.5t25 -36t9 -44.5t-9 -44.5t-25 -36.5t-36.5 -25t-44.5 -9t-44.5 9t-36 25t-24.5 36.5t-9 44.5z" />
    <glyph glyph-name="cent" unicode="&#xa2;" 
d="M423 107q-36 -3 -54 -3v-85h-95v106q-33 15 -59 41t-44 60t-28 74t-10 84q0 85 38 148.5t103 95.5v106h95v-81q4 1 14 1q13 0 40 -3v-177q-8 3 -18 3q-30 0 -49.5 -27.5t-19.5 -70.5t19.5 -71t49.5 -28q10 0 18 3v-176z" />
    <glyph glyph-name="sterling" unicode="&#xa3;" 
d="M563 125q-53 -138 -179 -138q-26 0 -51 6.5t-48 14.5t-44 14.5t-37 6.5q-43 0 -97 -33l-56 92q48 35 88 54q21 36 21 76t-20 108h-70v105h37l-5 18q-21 73 -21 113q0 43 17 80.5t46.5 64.5t70 42.5t87.5 15.5q122 0 220 -105l-109 -108q-36 56 -75 56q-20 0 -37 -16
t-17 -42q0 -7 4 -26.5t15 -50.5q7 -23 9 -42h183v-105h-170v-14q0 -70 -49 -132q19 -1 37 -7t33.5 -12.5t29.5 -11.5t25 -5q35 0 61 36z" />
    <glyph glyph-name="currency" unicode="&#xa4;" horiz-adv-x="754" 
d="M5 135l118 118q-40 71 -40 147q0 73 43 150l-121 121l102 101l122 -122q77 41 148 41q73 0 146 -40l121 120l101 -101l-119 -118q46 -76 46 -152q0 -70 -41 -146l118 -118l-100 -101l-118 117q-75 -45 -153 -45q-75 0 -155 44l-118 -116zM379 524q-26 0 -49 -10
t-39.5 -26.5t-26 -39.5t-9.5 -48t9.5 -47t26 -39t39 -27t47.5 -10q26 0 48.5 10t39 27t26 39.5t9.5 47.5t-10 47.5t-26.5 39t-38.5 26.5t-46 10z" />
    <glyph glyph-name="yen" unicode="&#xa5;" 
d="M444 409l-30 -75h163v-82h-169v-252h-204v252h-180v82h173l-32 75h-141v81h106l-113 264h212l37 -112q11 -32 19.5 -62.5t15.5 -58.5q7 28 15 58.5t19 62.5l37 112h211l-106 -264h100v-81h-133z" />
    <glyph glyph-name="brokenbar" unicode="&#xa6;" horiz-adv-x="522" 
d="M175 754h172v-409h-172v409zM175 173h172v-361h-172v361z" />
    <glyph glyph-name="section" unicode="&#xa7;" 
d="M220 9q0 -56 18.5 -80t61.5 -24q31 0 49.5 18.5t18.5 47.5q0 13 -3 22.5t-13 19.5t-28.5 21t-49.5 28q-69 36 -111.5 63.5t-66.5 53.5t-32.5 55.5t-8.5 69.5q0 96 81 159q-19 22 -31 40.5t-19 36t-10 35.5t-3 40q0 46 17.5 85.5t49 68t75.5 45t97 16.5t94.5 -13.5
t69.5 -43.5t42.5 -78.5t14.5 -118.5h-161q0 64 -15.5 90t-57.5 26q-62 0 -62 -57q0 -25 16.5 -42.5t58.5 -39.5l74 -38q46 -24 77 -46.5t50 -46.5t27.5 -51t8.5 -59q0 -92 -74 -152q82 -66 82 -163q0 -51 -20.5 -95t-55.5 -75.5t-82 -49.5t-100 -18t-98.5 13t-78.5 42
t-52 77t-19 118h169zM302 232q34 0 54 20t20 54t-20 53.5t-54 19.5t-54 -19.5t-20 -51.5t21 -54t53 -22z" />
    <glyph glyph-name="dieresis" unicode="&#xa8;" horiz-adv-x="565" 
d="M309 679q0 35 23.5 59t58.5 24t58.5 -24t23.5 -59t-23.5 -58.5t-58.5 -23.5t-58.5 23.5t-23.5 58.5zM92 679q0 35 23.5 59t58.5 24t58.5 -24t23.5 -59t-23.5 -58.5t-58.5 -23.5t-58.5 23.5t-23.5 58.5z" />
    <glyph glyph-name="copyright" unicode="&#xa9;" horiz-adv-x="859" 
d="M435 689q-63 0 -119 -24t-98 -66.5t-66.5 -99.5t-24.5 -123q0 -64 24 -120.5t65.5 -99t96.5 -67t117 -24.5t117 24.5t96 67t65 99t24 121.5q0 63 -23.5 119.5t-64 99.5t-94.5 68t-115 25zM436 771q78 0 148 -31.5t123 -85.5t84 -125.5t31 -152.5t-31.5 -152.5t-85 -125
t-124.5 -84.5t-150 -31q-80 0 -151.5 31t-125 84.5t-85 125t-31.5 152.5q0 82 31 154.5t85 125.5t126.5 84t155.5 31zM580 171q-26 -10 -59 -18.5t-71 -8.5q-51 0 -94.5 18t-75.5 49t-50.5 72.5t-18.5 89.5q0 49 19 92t51.5 75.5t76.5 51t95 18.5q34 0 64.5 -5t59.5 -14
l6 -181l-13 8q-23 14 -43.5 25.5t-47.5 11.5q-16 0 -30.5 -6t-26 -16.5t-18 -24.5t-6.5 -30q0 -33 24.5 -56t59.5 -23q23 0 44 9t44 25l13 9z" />
    <glyph glyph-name="ordfeminine" unicode="&#xaa;" horiz-adv-x="321" 
d="M296 445h-113v15q0 18 3 36q-29 -58 -77 -58q-43 0 -67 43t-24 115t24.5 115t69.5 43q47 0 74 -55q-1 10 -2 17.5t-1 15.5v15h113v-302zM182 596q0 66 -26 66t-26 -66q0 -64 26 -64t26 64zM296 332h-278v60h278v-60z" />
    <glyph glyph-name="guillemotleft" unicode="&#xab;" horiz-adv-x="546" 
d="M202 44l-172 227l172 228l88 -66l-129 -162l129 -161zM428 44l-172 227l172 228l88 -66l-128 -162l128 -161z" />
    <glyph glyph-name="logicalnot" unicode="&#xac;" horiz-adv-x="565" 
d="M319 0v149h-281v188h490v-337h-209z" />
    <glyph glyph-name="sfthyphen" unicode="&#xad;" horiz-adv-x="245" 
d="M245 196h-245v151h245v-151z" />
    <glyph glyph-name="registered" unicode="&#xae;" horiz-adv-x="859" 
d="M435 689q-63 0 -119 -24t-98 -66.5t-66.5 -99.5t-24.5 -123q0 -64 24 -120.5t65.5 -99t96.5 -67t117 -24.5t117 24.5t96 67t65 99t24 121.5q0 63 -23.5 119.5t-64 99.5t-94.5 68t-115 25zM436 771q78 0 148 -31.5t123 -85.5t84 -125.5t31 -152.5t-31.5 -152.5t-85 -125
t-124.5 -84.5t-150 -31q-80 0 -151.5 31t-125 84.5t-85 125t-31.5 152.5q0 82 31 154.5t85 125.5t126.5 84t155.5 31zM400 398h14q40 0 40 32q0 35 -34 35h-20v-67zM249 172v408h185q82 0 129 -39.5t47 -102.5q0 -37 -15 -63.5t-45 -38.5l-15 -6l117 -158h-194l-58 111v-111
h-151z" />
    <glyph glyph-name="macron" unicode="&#xaf;" horiz-adv-x="565" 
d="M105 625v110h355v-110h-355z" />
    <glyph glyph-name="degree" unicode="&#xb0;" horiz-adv-x="603" 
d="M302 671q-18 0 -33.5 -7t-27.5 -18.5t-19 -27t-7 -33.5t7 -33.5t19 -27.5t27.5 -19t33.5 -7t33.5 7t27 19t18 27.5t6.5 33.5t-6.5 33.5t-18 27t-27 18.5t-33.5 7zM115 585q0 39 14.5 73t40 59.5t59.5 40t73 14.5t73 -14.5t59.5 -40t40 -59.5t14.5 -73t-14.5 -73
t-40 -59.5t-59.5 -40t-73 -14.5t-73 14.5t-59.5 40t-40 59.5t-14.5 73z" />
    <glyph glyph-name="plusminus" unicode="&#xb1;" 
d="M37 326v117h204v202h120v-202h204v-117h-204v-194h-120v194h-204zM37 -30v117h528v-117h-528z" />
    <glyph glyph-name="twosuperior" unicode="&#xb2;" horiz-adv-x="398" 
d="M353 302h-323l128 166q21 27 35 48t23 38.5t13 33t4 32.5q0 37 -26 37q-28 0 -28 -52v-19h-124v20q0 34 11.5 62.5t32 49.5t49 32.5t61.5 11.5t61 -11.5t47.5 -31.5t30.5 -47t11 -59q0 -97 -116 -207q52 3 110 3v-107z" />
    <glyph glyph-name="threesuperior" unicode="&#xb3;" horiz-adv-x="398" 
d="M43 438h126q0 -40 28 -40q32 0 32 39q0 45 -49 45q-4 0 -9.5 -0.5t-13.5 -1.5v101q6 -1 10.5 -1h6.5q49 0 49 43q0 35 -24 35q-9 0 -15.5 -7t-6.5 -21v-8h-125q5 67 46.5 103.5t104.5 36.5q31 0 57.5 -10t46 -28t31 -42t11.5 -52q0 -63 -54 -94q60 -35 60 -104
q0 -32 -12.5 -57.5t-33.5 -43.5t-50 -27.5t-62 -9.5t-61 9.5t-48.5 27.5t-32.5 42.5t-12 54.5v10z" />
    <glyph glyph-name="acute" unicode="&#xb4;" horiz-adv-x="565" 
d="M222 600l53 167h159l-100 -167h-112z" />
    <glyph glyph-name="mu" unicode="&#xb5;" horiz-adv-x="565" 
d="M242 -231h-197v759h196v-298q0 -39 7 -58.5t35 -19.5q25 0 33 17t8 61v298h196v-324q0 -51 -17 -90.5t-48 -67.5t-74.5 -42.5t-95.5 -14.5q-45 0 -87 15z" />
    <glyph glyph-name="paragraph" unicode="&#xb6;" 
d="M154 -112v497q-29 0 -53 12t-42 34.5t-28 55t-10 72.5q0 95 46.5 145t142.5 50h370v-177h-75v-689h-131v689h-89v-689h-131z" />
    <glyph glyph-name="periodcentered" unicode="&#xb7;" horiz-adv-x="301" 
d="M36 380q0 24 9 44.5t24.5 36t36 24.5t44.5 9t44.5 -9t36 -24.5t24.5 -36t9 -44.5t-9 -44.5t-24.5 -36t-36 -24.5t-44.5 -9t-44.5 9t-36 24.5t-24.5 36t-9 44.5z" />
    <glyph glyph-name="cedilla" unicode="&#xb8;" horiz-adv-x="565" 
d="M420 -112l-128 -133l-75 54l111 139z" />
    <glyph glyph-name="onesuperior" unicode="&#xb9;" horiz-adv-x="398" 
d="M282 301h-128v344h-50v109h178v-453z" />
    <glyph glyph-name="ordmasculine" unicode="&#xba;" horiz-adv-x="316" 
d="M300 595q0 -34 -10 -63t-28.5 -50t-45 -32.5t-59.5 -11.5q-66 0 -102.5 43t-36.5 114q0 72 38 115.5t101 43.5q66 0 104.5 -40.5t38.5 -118.5zM190 595q0 74 -31 74q-32 0 -32 -74q0 -72 32 -72q31 0 31 72zM296 332h-277v60h277v-60z" />
    <glyph glyph-name="guillemotright" unicode="&#xbb;" horiz-adv-x="546" 
d="M344 44l-88 66l129 161l-129 162l88 66l172 -228zM118 44l-88 66l129 161l-129 162l88 66l172 -228z" />
    <glyph glyph-name="onequarter" unicode="&#xbc;" horiz-adv-x="954" 
d="M282 301h-128v344h-50v109h178v-453zM299 -50l-81 45l435 809l84 -44zM883 0h-129v90h-166v98l139 264h156v-261h39v-101h-39v-90zM759 191v82q0 5 0.5 13.5t3.5 25.5l-66 -121h62z" />
    <glyph glyph-name="onehalf" unicode="&#xbd;" horiz-adv-x="954" 
d="M282 301h-128v344h-50v109h178v-453zM299 -50l-81 45l435 809l84 -44zM909 0h-323l128 166q21 27 35 48t23 38.5t13 33t4 32.5q0 37 -26 37q-28 0 -28 -52v-19h-124v20q0 34 11.5 62.5t32 49.5t49 32.5t61.5 11.5t61 -11.5t47.5 -31.5t30.5 -47t11 -59q0 -97 -116 -207
q52 3 110 3v-107z" />
    <glyph glyph-name="threequarters" unicode="&#xbe;" horiz-adv-x="954" 
d="M43 438h126q0 -40 28 -40q32 0 32 39q0 45 -49 45q-4 0 -9.5 -0.5t-13.5 -1.5v101q6 -1 10.5 -1h6.5q49 0 49 43q0 35 -24 35q-9 0 -15.5 -7t-6.5 -21v-8h-125q5 67 46.5 103.5t104.5 36.5q31 0 57.5 -10t46 -28t31 -42t11.5 -52q0 -63 -54 -94q60 -35 60 -104
q0 -32 -12.5 -57.5t-33.5 -43.5t-50 -27.5t-62 -9.5t-61 9.5t-48.5 27.5t-32.5 42.5t-12 54.5v10zM299 -50l-81 45l435 809l84 -44zM883 0h-129v90h-166v98l139 264h156v-261h39v-101h-39v-90zM759 191v82q0 5 0.5 13.5t3.5 25.5l-66 -121h62z" />
    <glyph glyph-name="questiondown" unicode="&#xbf;" horiz-adv-x="575" 
d="M190 288h194v-184q-36 0 -62 -4t-42.5 -14.5t-24 -29.5t-7.5 -50q0 -83 43 -83q42 0 42 85h197q0 -120 -63 -186.5t-176 -66.5q-54 0 -99 18.5t-77.5 51t-51 78t-18.5 99.5q0 82 37.5 135.5t107.5 72.5v78zM171 458q0 24 9 44.5t24.5 36t36 24.5t44.5 9t44.5 -9t36 -24.5
t24.5 -36t9 -44.5t-9 -44.5t-24.5 -36t-36 -24.5t-44.5 -9t-44.5 9t-36 24.5t-24.5 36t-9 44.5z" />
    <glyph glyph-name="Agrave" unicode="&#xc0;" horiz-adv-x="599" 
d="M594 0h-210l-17 96h-135l-17 -96h-210l174 754h242zM343 257l-29 203q-3 19 -6 45t-8 69q-5 -43 -7.5 -69t-5.5 -45l-31 -203h87zM170 985h160l49 -171h-113z" />
    <glyph glyph-name="Aacute" unicode="&#xc1;" horiz-adv-x="599" 
d="M594 0h-210l-17 96h-135l-17 -96h-210l174 754h242zM343 257l-29 203q-3 19 -6 45t-8 69q-5 -43 -7.5 -69t-5.5 -45l-31 -203h87zM450 985l-95 -171h-114l50 171h159z" />
    <glyph glyph-name="Acircumflex" unicode="&#xc2;" horiz-adv-x="599" 
d="M594 0h-210l-17 96h-135l-17 -96h-210l174 754h242zM343 257l-29 203q-3 19 -6 45t-8 69q-5 -43 -7.5 -69t-5.5 -45l-31 -203h87zM489 814h-153l-39 68l-43 -68h-129l99 156h173z" />
    <glyph glyph-name="Atilde" unicode="&#xc3;" horiz-adv-x="599" 
d="M594 0h-210l-17 96h-135l-17 -96h-210l174 754h242zM343 257l-29 203q-3 19 -6 45t-8 69q-5 -43 -7.5 -69t-5.5 -45l-31 -203h87zM493 967v-16q0 -59 -33 -97t-86 -38q-11 0 -29 6t-38 13t-38 13t-27 6q-29 0 -30 -40h-103q0 74 29.5 111.5t84.5 37.5q15 0 33 -3.5
t38 -11.5l34 -14q8 -3 16 -5.5t16 -2.5q29 0 32 41h101z" />
    <glyph glyph-name="Adieresis" unicode="&#xc4;" horiz-adv-x="599" 
d="M594 0h-210l-17 96h-135l-17 -96h-210l174 754h242zM343 257l-29 203q-3 19 -6 45t-8 69q-5 -43 -7.5 -69t-5.5 -45l-31 -203h87zM495 895q0 -33 -24 -57t-57 -24q-35 0 -59 24t-24 58t24 58t58 24t58 -24.5t24 -58.5zM270 896q0 -17 -7 -32t-18 -26t-26 -17.5t-31 -6.5
q-33 0 -57 24.5t-24 57.5q0 34 24 58t57 24q34 0 58 -24t24 -58z" />
    <glyph glyph-name="Aring" unicode="&#xc5;" horiz-adv-x="599" 
d="M594 0h-210l-17 96h-135l-17 -96h-210l174 754h242zM343 257l-29 203q-3 19 -6 45t-8 69q-5 -43 -7.5 -69t-5.5 -45l-31 -203h87zM399 904q0 -20 -8 -37.5t-21 -31t-31 -21t-37 -7.5q-21 0 -39.5 8t-31.5 21.5t-20.5 31.5t-7.5 38q0 42 28 69.5t70 27.5q20 0 37.5 -7.5
t31 -21t21.5 -31.5t8 -39zM343 904q0 18 -12 30.5t-30 12.5q-17 0 -29 -12t-12 -30q0 -17 12.5 -29.5t29.5 -12.5t29 12.5t12 28.5z" />
    <glyph glyph-name="AE" unicode="&#xc6;" horiz-adv-x="696" 
d="M379 0l-17 96h-135l-17 -96h-210l174 754h425l28 -177h-158l18 -110h157l27 -171h-157l19 -115h156l29 -181h-339zM338 257l-29 203q-3 19 -6 45t-8 69q-5 -43 -7.5 -69t-5.5 -45l-31 -203h87z" />
    <glyph glyph-name="Ccedilla" unicode="&#xc7;" horiz-adv-x="503" 
d="M465 14q-68 -27 -122 -27q-68 0 -124.5 26.5t-97.5 77t-64 122.5t-23 164q0 87 23.5 159t67 123.5t105 80t137.5 28.5q26 0 50.5 -5t50.5 -14v-215q-47 45 -93 45q-65 0 -99 -54t-34 -148q0 -91 33 -142.5t96 -51.5q53 0 106 49zM414 -120l-159 -150l-82 52l136 166z" />
    <glyph glyph-name="Egrave" unicode="&#xc8;" horiz-adv-x="465" 
d="M53 0v754h378v-177h-175v-110h157v-171h-157v-115h175v-181h-378zM92 985h160l49 -171h-113z" />
    <glyph glyph-name="Eacute" unicode="&#xc9;" horiz-adv-x="465" 
d="M53 0v754h378v-177h-175v-110h157v-171h-157v-115h175v-181h-378zM369 985l-95 -171h-114l50 171h159z" />
    <glyph glyph-name="Ecircumflex" unicode="&#xca;" horiz-adv-x="465" 
d="M53 0v754h378v-177h-175v-110h157v-171h-157v-115h175v-181h-378zM423 814h-153l-39 68l-43 -68h-129l99 156h173z" />
    <glyph glyph-name="Edieresis" unicode="&#xcb;" horiz-adv-x="465" 
d="M57 0v754h378v-177h-175v-110h157v-171h-157v-115h175v-181h-378zM437 895q0 -33 -24 -57t-57 -24q-35 0 -59 24t-24 58t24 58t58 24t58 -24.5t24 -58.5zM212 896q0 -17 -7 -32t-18 -26t-26 -17.5t-31 -6.5q-33 0 -57 24.5t-24 57.5q0 34 24 58t57 24q34 0 58 -24t24 -58
z" />
    <glyph glyph-name="Igrave" unicode="&#xcc;" horiz-adv-x="309" 
d="M256 0h-203v754h203v-754zM13 985h160l49 -171h-114z" />
    <glyph glyph-name="Iacute" unicode="&#xcd;" horiz-adv-x="309" 
d="M256 0h-203v754h203v-754zM301 985l-95 -171h-114l50 171h159z" />
    <glyph glyph-name="Icircumflex" unicode="&#xce;" horiz-adv-x="309" 
d="M256 0h-203v754h203v-754zM329 814h-153l-31 68l-36 -68h-129l91 156h173z" />
    <glyph glyph-name="Idieresis" unicode="&#xcf;" horiz-adv-x="309" 
d="M256 0h-203v754h203v-754zM322 885q0 -29 -21 -50t-50 -21q-32 0 -52.5 21.5t-20.5 50.5q0 30 21 51t51 21q31 0 51.5 -22t20.5 -51zM131 886q0 -29 -20.5 -50.5t-50.5 -21.5t-50.5 21t-20.5 51q0 31 21 51.5t50 20.5q30 0 50.5 -21.5t20.5 -50.5z" />
    <glyph glyph-name="Eth" unicode="&#xd0;" horiz-adv-x="608" 
d="M53 0v328h-46v117h46v309h176q87 0 152 -28.5t107.5 -79t64 -120t21.5 -150.5q0 -85 -19.5 -154.5t-60.5 -118.5t-103.5 -76t-147.5 -27h-190zM256 182q109 6 109 189q0 91 -28 143t-74 52h-7v-121h60v-117h-60v-146z" />
    <glyph glyph-name="Ntilde" unicode="&#xd1;" horiz-adv-x="637" 
d="M53 0v754h194l106 -277q8 -21 15.5 -45t15 -47.5t13.5 -45.5t11 -40q-6 79 -12.5 148.5t-6.5 114.5v192h195v-754h-195l-102 277q-32 86 -52 158q6 -79 9 -138.5t3 -104.5v-192h-194zM515 967v-16q0 -59 -33 -97t-86 -38q-11 0 -29 6t-38 13t-38 13t-27 6q-29 0 -30 -40
h-103q0 74 29.5 111.5t84.5 37.5q15 0 33 -3.5t38 -11.5l34 -14q8 -3 16 -5.5t16 -2.5q29 0 32 41h101z" />
    <glyph glyph-name="Ograve" unicode="&#xd2;" horiz-adv-x="641" 
d="M608 377q0 -87 -20.5 -159t-58.5 -123.5t-91 -79.5t-117 -28q-65 0 -117.5 28t-90.5 79.5t-58.5 123.5t-20.5 159t20.5 159t58.5 123.5t90.5 80t117.5 28.5q64 0 117 -28.5t91 -80t58.5 -123.5t20.5 -159zM397 377q0 97 -20 149t-56 52t-56 -52t-20 -149t20 -148.5
t56 -51.5t56 51.5t20 148.5zM186 985h160l49 -171h-113z" />
    <glyph glyph-name="Oacute" unicode="&#xd3;" horiz-adv-x="641" 
d="M608 377q0 -87 -20.5 -159t-58.5 -123.5t-91 -79.5t-117 -28q-65 0 -117.5 28t-90.5 79.5t-58.5 123.5t-20.5 159t20.5 159t58.5 123.5t90.5 80t117.5 28.5q64 0 117 -28.5t91 -80t58.5 -123.5t20.5 -159zM397 377q0 97 -20 149t-56 52t-56 -52t-20 -149t20 -148.5
t56 -51.5t56 51.5t20 148.5zM463 985l-95 -171h-114l50 171h159z" />
    <glyph glyph-name="Ocircumflex" unicode="&#xd4;" horiz-adv-x="641" 
d="M608 377q0 -87 -20.5 -159t-58.5 -123.5t-91 -79.5t-117 -28q-65 0 -117.5 28t-90.5 79.5t-58.5 123.5t-20.5 159t20.5 159t58.5 123.5t90.5 80t117.5 28.5q64 0 117 -28.5t91 -80t58.5 -123.5t20.5 -159zM397 377q0 97 -20 149t-56 52t-56 -52t-20 -149t20 -148.5
t56 -51.5t56 51.5t20 148.5zM503 814h-153l-39 68l-43 -68h-129l99 156h173z" />
    <glyph glyph-name="Otilde" unicode="&#xd5;" horiz-adv-x="641" 
d="M608 377q0 -87 -20.5 -159t-58.5 -123.5t-91 -79.5t-117 -28q-65 0 -117.5 28t-90.5 79.5t-58.5 123.5t-20.5 159t20.5 159t58.5 123.5t90.5 80t117.5 28.5q64 0 117 -28.5t91 -80t58.5 -123.5t20.5 -159zM397 377q0 97 -20 149t-56 52t-56 -52t-20 -149t20 -148.5
t56 -51.5t56 51.5t20 148.5zM512 967v-16q0 -59 -33 -97t-86 -38q-11 0 -29 6t-38 13t-38 13t-27 6q-29 0 -30 -40h-103q0 74 29.5 111.5t84.5 37.5q15 0 33 -3.5t38 -11.5l34 -14q8 -3 16 -5.5t16 -2.5q29 0 32 41h101z" />
    <glyph glyph-name="Odieresis" unicode="&#xd6;" horiz-adv-x="641" 
d="M608 377q0 -87 -20.5 -159t-58.5 -123.5t-91 -79.5t-117 -28q-65 0 -117.5 28t-90.5 79.5t-58.5 123.5t-20.5 159t20.5 159t58.5 123.5t90.5 80t117.5 28.5q64 0 117 -28.5t91 -80t58.5 -123.5t20.5 -159zM397 377q0 97 -20 149t-56 52t-56 -52t-20 -149t20 -148.5
t56 -51.5t56 51.5t20 148.5zM515 895q0 -33 -24 -57t-57 -24q-35 0 -59 24t-24 58t24 58t58 24t58 -24.5t24 -58.5zM290 896q0 -17 -7 -32t-18 -26t-26 -17.5t-31 -6.5q-33 0 -57 24.5t-24 57.5q0 34 24 58t57 24q34 0 58 -24t24 -58z" />
    <glyph glyph-name="multiply" unicode="&#xd7;" 
d="M61 539l86 86l155 -155l154 154l85 -84l-155 -154l156 -156l-87 -86l-155 155l-154 -154l-84 84l154 154z" />
    <glyph glyph-name="Oslash" unicode="&#xd8;" horiz-adv-x="641" 
d="M608 377q0 -87 -20.5 -159t-58.5 -123.5t-91 -79.5t-117 -28q-53 0 -97.5 18t-79.5 53l-52 -71l-71 48l69 96q-27 49 -41.5 111t-14.5 135q0 87 20.5 159t58.5 123.5t90.5 80t117.5 28.5q52 0 97 -18.5t80 -53.5l52 72l74 -52l-70 -96q26 -49 40 -110t14 -133zM245 346
l131 181q-20 51 -55 51q-36 0 -56 -52t-20 -149v-31zM397 377v13.5t-1 13.5l-130 -178q20 -49 55 -49q36 0 56 51.5t20 148.5z" />
    <glyph glyph-name="Ugrave" unicode="&#xd9;" horiz-adv-x="618" 
d="M565 754v-504q0 -65 -18.5 -114t-52 -82t-80.5 -50t-104 -17t-104.5 17t-81 50t-52.5 82t-19 114v504h204v-486q0 -50 12 -70.5t41 -20.5t40 20.5t11 70.5v486h204zM168 985h160l49 -171h-113z" />
    <glyph glyph-name="Uacute" unicode="&#xda;" horiz-adv-x="618" 
d="M565 754v-504q0 -65 -18.5 -114t-52 -82t-80.5 -50t-104 -17t-104.5 17t-81 50t-52.5 82t-19 114v504h204v-486q0 -50 12 -70.5t41 -20.5t40 20.5t11 70.5v486h204zM458 985l-95 -171h-114l50 171h159z" />
    <glyph glyph-name="Ucircumflex" unicode="&#xdb;" horiz-adv-x="618" 
d="M565 754v-504q0 -65 -18.5 -114t-52 -82t-80.5 -50t-104 -17t-104.5 17t-81 50t-52.5 82t-19 114v504h204v-486q0 -50 12 -70.5t41 -20.5t40 20.5t11 70.5v486h204zM491 814h-153l-39 68l-43 -68h-129l99 156h173z" />
    <glyph glyph-name="Udieresis" unicode="&#xdc;" horiz-adv-x="618" 
d="M565 754v-504q0 -65 -18.5 -114t-52 -82t-80.5 -50t-104 -17t-104.5 17t-81 50t-52.5 82t-19 114v504h204v-486q0 -50 12 -70.5t41 -20.5t40 20.5t11 70.5v486h204zM504 895q0 -33 -24 -57t-57 -24q-35 0 -59 24t-24 58t24 58t58 24t58 -24.5t24 -58.5zM279 896
q0 -17 -7 -32t-18 -26t-26 -17.5t-31 -6.5q-33 0 -57 24.5t-24 57.5q0 34 24 58t57 24q34 0 58 -24t24 -58z" />
    <glyph glyph-name="Yacute" unicode="&#xdd;" horiz-adv-x="566" 
d="M391 0h-204v319l-187 435h212l37 -112q11 -32 19.5 -62.5t15.5 -58.5q7 28 15 58.5t19 62.5l37 112h211l-175 -435v-319zM440 985l-95 -171h-114l50 171h159z" />
    <glyph glyph-name="Thorn" unicode="&#xde;" horiz-adv-x="571" 
d="M256 0h-203v754h203v-106h32q64 0 113.5 -17.5t83 -50.5t51 -80t17.5 -105q0 -57 -15 -103.5t-47.5 -79.5t-82.5 -51.5t-120 -18.5h-32v-142zM256 311h10q37 0 59 23t22 61t-21.5 63.5t-54.5 25.5q-3 0 -6.5 -0.5t-8.5 -0.5v-172z" />
    <glyph glyph-name="germandbls" unicode="&#xdf;" horiz-adv-x="582" 
d="M56 0v528q0 89 17.5 147.5t49 92.5t76 47.5t98.5 13.5q51 0 93.5 -17t73 -46t47 -68.5t16.5 -84.5q0 -58 -29.5 -98t-76.5 -53q23 -9 47.5 -27t44.5 -44t32.5 -59t12.5 -73q0 -57 -16 -106.5t-44 -86t-67 -57t-84 -20.5q-13 0 -23 1t-22 3v154q27 5 39 34t12 78t-12 78.5
t-39 34.5v155q39 0 39 65q0 63 -44 63q-21 0 -34 -13.5t-13 -54.5v-587h-194z" />
    <glyph glyph-name="agrave" unicode="&#xe0;" horiz-adv-x="562" 
d="M517 0h-196v30q0 11 1 26t3 33q-51 -100 -134 -100q-38 0 -68 19.5t-50.5 55t-31.5 86.5t-11 114t11.5 114t33 86.5t52 55t69.5 19.5t72 -23.5t57 -71.5q-2 18 -3 31.5t-1 24.5v28h196v-528zM233 264q0 -55 12 -84t35 -29t35 29t12 84t-12 84t-35 29t-35 -29t-12 -84z
M364 600h-112l-99 167h158z" />
    <glyph glyph-name="aacute" unicode="&#xe1;" horiz-adv-x="562" 
d="M517 0h-196v30q0 11 1 26t3 33q-51 -100 -134 -100q-38 0 -68 19.5t-50.5 55t-31.5 86.5t-11 114t11.5 114t33 86.5t52 55t69.5 19.5t72 -23.5t57 -71.5q-2 18 -3 31.5t-1 24.5v28h196v-528zM233 264q0 -55 12 -84t35 -29t35 29t12 84t-12 84t-35 29t-35 -29t-12 -84z
M228 600l53 167h159l-100 -167h-112z" />
    <glyph glyph-name="acircumflex" unicode="&#xe2;" horiz-adv-x="562" 
d="M517 0h-196v30q0 11 1 26t3 33q-51 -100 -134 -100q-38 0 -68 19.5t-50.5 55t-31.5 86.5t-11 114t11.5 114t33 86.5t52 55t69.5 19.5t72 -23.5t57 -71.5q-2 18 -3 31.5t-1 24.5v28h196v-528zM233 264q0 -55 12 -84t35 -29t35 29t12 84t-12 84t-35 29t-35 -29t-12 -84z
M464 600h-143l-41 76l-43 -76h-117l87 156h177z" />
    <glyph glyph-name="atilde" unicode="&#xe3;" horiz-adv-x="562" 
d="M517 0h-196v30q0 11 1 26t3 33q-51 -100 -134 -100q-38 0 -68 19.5t-50.5 55t-31.5 86.5t-11 114t11.5 114t33 86.5t52 55t69.5 19.5t72 -23.5t57 -71.5q-2 18 -3 31.5t-1 24.5v28h196v-528zM233 264q0 -55 12 -84t35 -29t35 29t12 84t-12 84t-35 29t-35 -29t-12 -84z
M485 752v-16q0 -59 -32.5 -96.5t-86.5 -37.5q-35 0 -85 23q-32 15 -48 15q-27 0 -30 -40h-103q0 73 30 111t85 38q15 0 33 -4t38 -12l34 -14q8 -3 16 -5.5t16 -2.5q29 0 32 41h101z" />
    <glyph glyph-name="adieresis" unicode="&#xe4;" horiz-adv-x="562" 
d="M517 0h-196v30q0 11 1 26t3 33q-51 -100 -134 -100q-38 0 -68 19.5t-50.5 55t-31.5 86.5t-11 114t11.5 114t33 86.5t52 55t69.5 19.5t72 -23.5t57 -71.5q-2 18 -3 31.5t-1 24.5v28h196v-528zM233 264q0 -55 12 -84t35 -29t35 29t12 84t-12 84t-35 29t-35 -29t-12 -84z
M319 679q0 35 23.5 59t58.5 24t58.5 -24t23.5 -59t-23.5 -58.5t-58.5 -23.5t-58.5 23.5t-23.5 58.5zM102 679q0 35 23.5 59t58.5 24t58.5 -24t23.5 -59t-23.5 -58.5t-58.5 -23.5t-58.5 23.5t-23.5 58.5z" />
    <glyph glyph-name="aring" unicode="&#xe5;" horiz-adv-x="562" 
d="M517 0h-196v30q0 11 1 26t3 33q-51 -100 -134 -100q-38 0 -68 19.5t-50.5 55t-31.5 86.5t-11 114t11.5 114t33 86.5t52 55t69.5 19.5t72 -23.5t57 -71.5q-2 18 -3 31.5t-1 24.5v28h196v-528zM233 264q0 -55 12 -84t35 -29t35 29t12 84t-12 84t-35 29t-35 -29t-12 -84z
M414 699q0 -22 -8.5 -41.5t-23.5 -34t-34.5 -23t-41.5 -8.5t-42 8.5t-35 23t-23.5 34t-8.5 42.5q0 22 8.5 42t23 35t34 23.5t42.5 8.5t43 -9t34.5 -24t23 -35t8.5 -42zM350 700q0 20 -13 33.5t-32 13.5q-20 0 -33 -13.5t-13 -33.5q0 -19 13 -32.5t33 -13.5q19 0 32 13.5
t13 32.5z" />
    <glyph glyph-name="ae" unicode="&#xe6;" horiz-adv-x="831" 
d="M791 170q-6 -40 -27 -73.5t-52.5 -57.5t-71 -37t-83.5 -13q-23 0 -48 5t-49 14.5t-43.5 22t-30.5 27.5q-23 -28 -62 -48.5t-107 -20.5q-43 0 -77.5 13.5t-59 38t-37.5 58t-13 72.5q0 80 50 126.5t137 46.5q21 0 53.5 -9.5t61.5 -38.5v31q0 30 -30.5 50t-84.5 20
q-33 0 -63.5 -5.5t-65.5 -21.5v146q45 12 84 17.5t74 5.5q40 0 84.5 -10t84.5 -34q29 21 64.5 32.5t77.5 11.5q54 0 99 -19t77.5 -54.5t50 -86.5t17.5 -115q0 -8 -0.5 -20.5t-0.5 -20.5h-296q2 -42 17 -64t36 -22q17 0 28.5 10t16.5 29zM321 171q0 26 -13.5 46.5t-36.5 20.5
t-36.5 -20.5t-13.5 -46.5t13.5 -45.5t36.5 -19.5t36.5 19.5t13.5 45.5zM610 322q-4 29 -16.5 49t-36.5 20t-36.5 -20t-16.5 -49h106z" />
    <glyph glyph-name="ccedilla" unicode="&#xe7;" horiz-adv-x="342" 
d="M320 -8q-36 -3 -53 -3q-53 0 -96.5 21t-75 58t-48.5 87.5t-17 108.5t19 108.5t52 87.5t79 58t100 21q13 0 40 -3v-177q-8 3 -18 3q-30 0 -49.5 -27.5t-19.5 -70.5t19.5 -71t49.5 -28q10 0 18 3v-176zM302 -112l-128 -133l-75 54l111 139z" />
    <glyph glyph-name="egrave" unicode="&#xe8;" horiz-adv-x="544" 
d="M509 170q-6 -40 -27 -73.5t-52.5 -57.5t-71 -37t-83.5 -13q-54 0 -99.5 19.5t-77.5 55.5t-50 86.5t-18 113.5t18 113.5t50 86.5t77.5 55.5t99.5 19.5t99 -19t77.5 -54.5t50 -86.5t17.5 -115q0 -8 -0.5 -20.5t-0.5 -20.5h-296q2 -42 17 -64t36 -22q17 0 28.5 10t16.5 29z
M328 322q-4 29 -16.5 49t-36.5 20t-36.5 -20t-16.5 -49h106zM344 600h-112l-99 167h158z" />
    <glyph glyph-name="eacute" unicode="&#xe9;" horiz-adv-x="544" 
d="M509 170q-6 -40 -27 -73.5t-52.5 -57.5t-71 -37t-83.5 -13q-54 0 -99.5 19.5t-77.5 55.5t-50 86.5t-18 113.5t18 113.5t50 86.5t77.5 55.5t99.5 19.5t99 -19t77.5 -54.5t50 -86.5t17.5 -115q0 -8 -0.5 -20.5t-0.5 -20.5h-296q2 -42 17 -64t36 -22q17 0 28.5 10t16.5 29z
M328 322q-4 29 -16.5 49t-36.5 20t-36.5 -20t-16.5 -49h106zM205 600l53 167h159l-100 -167h-112z" />
    <glyph glyph-name="ecircumflex" unicode="&#xea;" horiz-adv-x="544" 
d="M509 170q-6 -40 -27 -73.5t-52.5 -57.5t-71 -37t-83.5 -13q-54 0 -99.5 19.5t-77.5 55.5t-50 86.5t-18 113.5t18 113.5t50 86.5t77.5 55.5t99.5 19.5t99 -19t77.5 -54.5t50 -86.5t17.5 -115q0 -8 -0.5 -20.5t-0.5 -20.5h-296q2 -42 17 -64t36 -22q17 0 28.5 10t16.5 29z
M328 322q-4 29 -16.5 49t-36.5 20t-36.5 -20t-16.5 -49h106zM445 600h-143l-41 76l-43 -76h-117l87 156h177z" />
    <glyph glyph-name="edieresis" unicode="&#xeb;" horiz-adv-x="544" 
d="M509 170q-6 -40 -27 -73.5t-52.5 -57.5t-71 -37t-83.5 -13q-54 0 -99.5 19.5t-77.5 55.5t-50 86.5t-18 113.5t18 113.5t50 86.5t77.5 55.5t99.5 19.5t99 -19t77.5 -54.5t50 -86.5t17.5 -115q0 -8 -0.5 -20.5t-0.5 -20.5h-296q2 -42 17 -64t36 -22q17 0 28.5 10t16.5 29z
M328 322q-4 29 -16.5 49t-36.5 20t-36.5 -20t-16.5 -49h106zM300 679q0 35 23.5 59t58.5 24t58.5 -24t23.5 -59t-23.5 -58.5t-58.5 -23.5t-58.5 23.5t-23.5 58.5zM83 679q0 35 23.5 59t58.5 24t58.5 -24t23.5 -59t-23.5 -58.5t-58.5 -23.5t-58.5 23.5t-23.5 58.5z" />
    <glyph glyph-name="igrave" unicode="&#xec;" horiz-adv-x="287" 
d="M241 0h-196v528h196v-528zM211 600h-112l-99 167h158z" />
    <glyph glyph-name="iacute" unicode="&#xed;" horiz-adv-x="287" 
d="M241 0h-196v528h196v-528zM76 600l53 167h158l-99 -167h-112z" />
    <glyph glyph-name="icircumflex" unicode="&#xee;" horiz-adv-x="286" 
d="M241 0h-196v528h196v-528zM308 600h-144l-32 76l-37 -76h-116l79 156h176z" />
    <glyph glyph-name="idieresis" unicode="&#xef;" horiz-adv-x="287" 
d="M241 0h-196v528h196v-528zM-20 672q0 30 21 51t51 21t51 -21t21 -51t-21 -51t-51 -21t-51 21t-21 51zM163 672q0 30 21 51t51 21t51 -21t21 -51t-21 -51t-51 -21t-51 21t-21 51z" />
    <glyph glyph-name="eth" unicode="&#xf0;" horiz-adv-x="552" 
d="M97 827q85 -22 170 -75l129 72l40 -74l-94 -52q180 -158 180 -418q0 -138 -64 -214.5t-183 -76.5q-57 0 -102.5 19.5t-77 55t-48.5 86t-17 113.5q0 60 17.5 111t48.5 87.5t74.5 57t95.5 20.5q-12 27 -25 49.5t-28 40.5l-123 -68l-40 71l103 57l-17 11q-26 17 -48 27.5
t-42 20.5zM331 261q0 59 -15 94.5t-41 35.5q-23 0 -39 -33.5t-16 -94.5q0 -60 15.5 -93.5t39.5 -33.5q13 0 23.5 10.5t17.5 27.5t11 40t4 47z" />
    <glyph glyph-name="ntilde" unicode="&#xf1;" horiz-adv-x="555" 
d="M314 0v276q0 39 -7.5 53.5t-26.5 14.5q-39 0 -39 -78v-266h-196v528h196v-30q0 -13 -0.5 -31t-3.5 -44q27 57 59.5 86.5t78.5 29.5q66 0 100.5 -49t34.5 -130v-360h-196zM471 752v-16q0 -59 -32.5 -96.5t-86.5 -37.5q-35 0 -85 23q-32 15 -48 15q-27 0 -30 -40h-103
q0 73 30 111t85 38q15 0 33 -4t38 -12l34 -14q8 -3 16 -5.5t16 -2.5q29 0 32 41h101z" />
    <glyph glyph-name="ograve" unicode="&#xf2;" horiz-adv-x="551" 
d="M520 264q0 -63 -17.5 -113.5t-49.5 -86.5t-77 -55.5t-101 -19.5t-101 19.5t-77 55.5t-49.5 86.5t-17.5 113.5t17.5 113.5t49.5 86.5t77 55.5t101 19.5t101 -19.5t77 -55.5t49.5 -86.5t17.5 -113.5zM331 264q0 63 -16 95.5t-40 32.5t-39.5 -32.5t-15.5 -95.5t15.5 -95.5
t39.5 -32.5t40 32.5t16 95.5zM344 600h-112l-99 167h158z" />
    <glyph glyph-name="oacute" unicode="&#xf3;" horiz-adv-x="551" 
d="M520 264q0 -63 -17.5 -113.5t-49.5 -86.5t-77 -55.5t-101 -19.5t-101 19.5t-77 55.5t-49.5 86.5t-17.5 113.5t17.5 113.5t49.5 86.5t77 55.5t101 19.5t101 -19.5t77 -55.5t49.5 -86.5t17.5 -113.5zM331 264q0 63 -16 95.5t-40 32.5t-39.5 -32.5t-15.5 -95.5t15.5 -95.5
t39.5 -32.5t40 32.5t16 95.5zM209 600l53 167h159l-100 -167h-112z" />
    <glyph glyph-name="ocircumflex" unicode="&#xf4;" horiz-adv-x="551" 
d="M520 264q0 -63 -17.5 -113.5t-49.5 -86.5t-77 -55.5t-101 -19.5t-101 19.5t-77 55.5t-49.5 86.5t-17.5 113.5t17.5 113.5t49.5 86.5t77 55.5t101 19.5t101 -19.5t77 -55.5t49.5 -86.5t17.5 -113.5zM331 264q0 63 -16 95.5t-40 32.5t-39.5 -32.5t-15.5 -95.5t15.5 -95.5
t39.5 -32.5t40 32.5t16 95.5zM449 600h-143l-41 76l-43 -76h-117l87 156h177z" />
    <glyph glyph-name="otilde" unicode="&#xf5;" horiz-adv-x="551" 
d="M520 264q0 -63 -17.5 -113.5t-49.5 -86.5t-77 -55.5t-101 -19.5t-101 19.5t-77 55.5t-49.5 86.5t-17.5 113.5t17.5 113.5t49.5 86.5t77 55.5t101 19.5t101 -19.5t77 -55.5t49.5 -86.5t17.5 -113.5zM331 264q0 63 -16 95.5t-40 32.5t-39.5 -32.5t-15.5 -95.5t15.5 -95.5
t39.5 -32.5t40 32.5t16 95.5zM473 752v-16q0 -59 -32.5 -96.5t-86.5 -37.5q-35 0 -85 23q-32 15 -48 15q-27 0 -30 -40h-103q0 73 30 111t85 38q15 0 33 -4t38 -12l34 -14q8 -3 16 -5.5t16 -2.5q29 0 32 41h101z" />
    <glyph glyph-name="odieresis" unicode="&#xf6;" horiz-adv-x="551" 
d="M520 264q0 -63 -17.5 -113.5t-49.5 -86.5t-77 -55.5t-101 -19.5t-101 19.5t-77 55.5t-49.5 86.5t-17.5 113.5t17.5 113.5t49.5 86.5t77 55.5t101 19.5t101 -19.5t77 -55.5t49.5 -86.5t17.5 -113.5zM331 264q0 63 -16 95.5t-40 32.5t-39.5 -32.5t-15.5 -95.5t15.5 -95.5
t39.5 -32.5t40 32.5t16 95.5zM304 679q0 35 23.5 59t58.5 24t58.5 -24t23.5 -59t-23.5 -58.5t-58.5 -23.5t-58.5 23.5t-23.5 58.5zM87 679q0 35 23.5 59t58.5 24t58.5 -24t23.5 -59t-23.5 -58.5t-58.5 -23.5t-58.5 23.5t-23.5 58.5z" />
    <glyph glyph-name="divide" unicode="&#xf7;" 
d="M44 326v117h513v-117h-513zM394 171q0 -18 -7 -34.5t-19.5 -29t-29.5 -20t-37 -7.5q-39 0 -66 27t-27 66q0 19 7 36t19.5 29.5t29.5 20t36 7.5t36.5 -7.5t30 -20.5t20 -30.5t7.5 -36.5zM394 594q0 -18 -7 -34.5t-20 -29t-30 -20t-36 -7.5q-20 0 -37 8t-29.5 21t-19.5 30
t-7 35q0 19 7 36t19.5 29.5t29 19.5t36.5 7q40 0 67 -27t27 -68z" />
    <glyph glyph-name="oslash" unicode="&#xf8;" horiz-adv-x="551" 
d="M520 264q0 -63 -17.5 -113.5t-49.5 -86.5t-77 -55.5t-101 -19.5q-62 0 -114 25l-54 -77l-76 55l57 82q-28 35 -43 83t-15 107q0 63 17.5 113.5t49.5 86.5t77 55.5t101 19.5q33 0 62 -7t55 -20l52 75l77 -53l-58 -83q27 -35 42 -82.5t15 -104.5zM331 264q0 63 -16 95.5
t-40 32.5t-39.5 -32.5t-15.5 -95.5t15.5 -95.5t39.5 -32.5t40 32.5t16 95.5z" />
    <glyph glyph-name="ugrave" unicode="&#xf9;" horiz-adv-x="565" 
d="M241 528v-298q0 -39 8 -58.5t34 -19.5t33.5 19.5t7.5 58.5v298h196v-324q0 -50 -16.5 -90t-47.5 -68t-75 -42.5t-98 -14.5t-98 14.5t-75 42.5t-48 68t-17 90v324h196zM347 600h-112l-99 167h158z" />
    <glyph glyph-name="uacute" unicode="&#xfa;" horiz-adv-x="565" 
d="M241 528v-298q0 -39 8 -58.5t34 -19.5t33.5 19.5t7.5 58.5v298h196v-324q0 -50 -16.5 -90t-47.5 -68t-75 -42.5t-98 -14.5t-98 14.5t-75 42.5t-48 68t-17 90v324h196zM222 600l53 167h159l-100 -167h-112z" />
    <glyph glyph-name="ucircumflex" unicode="&#xfb;" horiz-adv-x="565" 
d="M241 528v-298q0 -39 8 -58.5t34 -19.5t33.5 19.5t7.5 58.5v298h196v-324q0 -50 -16.5 -90t-47.5 -68t-75 -42.5t-98 -14.5t-98 14.5t-75 42.5t-48 68t-17 90v324h196zM455 600h-143l-41 76l-43 -76h-117l87 156h177z" />
    <glyph glyph-name="udieresis" unicode="&#xfc;" horiz-adv-x="565" 
d="M241 528v-298q0 -39 8 -58.5t34 -19.5t33.5 19.5t7.5 58.5v298h196v-324q0 -50 -16.5 -90t-47.5 -68t-75 -42.5t-98 -14.5t-98 14.5t-75 42.5t-48 68t-17 90v324h196zM309 679q0 35 23.5 59t58.5 24t58.5 -24t23.5 -59t-23.5 -58.5t-58.5 -23.5t-58.5 23.5t-23.5 58.5z
M92 679q0 35 23.5 59t58.5 24t58.5 -24t23.5 -59t-23.5 -58.5t-58.5 -23.5t-58.5 23.5t-23.5 58.5z" />
    <glyph glyph-name="yacute" unicode="&#xfd;" horiz-adv-x="516" 
d="M273 -221h-194l79 241l-158 508h195l37 -152q8 -31 13 -66.5t11 -78.5q5 43 10.5 75.5t14.5 69.5l38 152h197zM202 600l53 167h159l-100 -167h-112z" />
    <glyph glyph-name="thorn" unicode="&#xfe;" horiz-adv-x="560" 
d="M45 825h196v-297q0 -14 -1 -33t-3 -42q25 48 52 67t69 19q38 0 69.5 -20t54 -56t35 -87t12.5 -113t-11.5 -112.5t-33 -86.5t-53 -55.5t-70.5 -19.5q-71 0 -124 83q2 -23 3 -45t1 -43v-219h-196v1060zM327 269q0 52 -12 80.5t-34 28.5q-46 0 -46 -111q0 -113 44 -113
q23 0 35.5 30t12.5 85z" />
    <glyph glyph-name="ydieresis" unicode="&#xff;" horiz-adv-x="516" 
d="M273 -221h-194l79 241l-158 508h195l37 -152q8 -31 13 -66.5t11 -78.5q5 43 10.5 75.5t14.5 69.5l38 152h197zM285 679q0 35 23.5 59t58.5 24t58.5 -24t23.5 -59t-23.5 -58.5t-58.5 -23.5t-58.5 23.5t-23.5 58.5zM68 679q0 35 23.5 59t58.5 24t58.5 -24t23.5 -59
t-23.5 -58.5t-58.5 -23.5t-58.5 23.5t-23.5 58.5z" />
    <glyph glyph-name="Amacron" unicode="&#x100;" horiz-adv-x="599" 
d="M594 0h-210l-17 96h-135l-17 -96h-210l174 754h242zM343 257l-29 203q-3 19 -6 45t-8 69q-5 -43 -7.5 -69t-5.5 -45l-31 -203h87zM124 842v109h354v-109h-354z" />
    <glyph glyph-name="amacron" unicode="&#x101;" horiz-adv-x="562" 
d="M517 0h-196v30q0 11 1 26t3 33q-51 -100 -134 -100q-38 0 -68 19.5t-50.5 55t-31.5 86.5t-11 114t11.5 114t33 86.5t52 55t69.5 19.5t72 -23.5t57 -71.5q-2 18 -3 31.5t-1 24.5v28h196v-528zM233 264q0 -55 12 -84t35 -29t35 29t12 84t-12 84t-35 29t-35 -29t-12 -84z
M124 625v110h355v-110h-355z" />
    <glyph glyph-name="Abreve" unicode="&#x102;" horiz-adv-x="599" 
d="M594 0h-210l-17 96h-135l-17 -96h-210l174 754h242zM343 257l-29 203q-3 19 -6 45t-8 69q-5 -43 -7.5 -69t-5.5 -45l-31 -203h87zM199 979q14 -35 37 -47.5t65 -12.5q43 0 66 12.5t37 47.5h78q-6 -78 -53 -122.5t-129 -44.5q-78 0 -125 44.5t-55 122.5h79z" />
    <glyph glyph-name="abreve" unicode="&#x103;" horiz-adv-x="562" 
d="M517 0h-196v30q0 11 1 26t3 33q-51 -100 -134 -100q-38 0 -68 19.5t-50.5 55t-31.5 86.5t-11 114t11.5 114t33 86.5t52 55t69.5 19.5t72 -23.5t57 -71.5q-2 18 -3 31.5t-1 24.5v28h196v-528zM233 264q0 -55 12 -84t35 -29t35 29t12 84t-12 84t-35 29t-35 -29t-12 -84z
M199 768q14 -35 36 -48t66 -13q40 0 61 13t34 48h79q-17 -168 -176 -168q-78 0 -124.5 45t-54.5 123h79z" />
    <glyph glyph-name="Aogonek" unicode="&#x104;" horiz-adv-x="599" 
d="M595 0h-122q-49 -43 -49 -89q0 -51 57 -51q17 0 49 9l-11 -101q-30 -12 -62 -12q-65 0 -106 32t-41 82q0 67 75 130l-17 96h-135l-17 -96h-210l174 754h242zM344 257l-29 203q-3 19 -6 45t-8 69q-5 -43 -7.5 -69t-5.5 -45l-31 -203h87z" />
    <glyph glyph-name="aogonek" unicode="&#x105;" horiz-adv-x="562" 
d="M517 0h-109q-49 -43 -49 -89q0 -51 58 -51q16 0 48 9l-11 -101q-30 -12 -62 -12q-33 0 -60 8.5t-46.5 24t-30 36.5t-10.5 45q0 67 76 130v30q0 11 1 26t3 33q-51 -100 -134 -100q-38 0 -68 19.5t-50.5 55t-31.5 86.5t-11 114t11.5 114t33 86.5t52 55t69.5 19.5t72 -23.5
t57 -71.5q-2 18 -3 31.5t-1 24.5v28h196v-528zM233 264q0 -55 12 -84t35 -29t35 29t12 84t-12 84t-35 29t-35 -29t-12 -84z" />
    <glyph glyph-name="Cacute" unicode="&#x106;" horiz-adv-x="503" 
d="M465 14q-68 -27 -122 -27q-68 0 -124.5 26.5t-97.5 77t-64 122.5t-23 164q0 87 23.5 159t67 123.5t105 80t137.5 28.5q26 0 50.5 -5t50.5 -14v-215q-47 45 -93 45q-65 0 -99 -54t-34 -148q0 -91 33 -142.5t96 -51.5q53 0 106 49zM477 985l-95 -171h-114l50 171h159z" />
    <glyph glyph-name="cacute" unicode="&#x107;" horiz-adv-x="342" 
d="M320 -8q-36 -3 -53 -3q-53 0 -96.5 21t-75 58t-48.5 87.5t-17 108.5t19 108.5t52 87.5t79 58t100 21q13 0 40 -3v-177q-8 3 -18 3q-30 0 -49.5 -27.5t-19.5 -70.5t19.5 -71t49.5 -28q10 0 18 3v-176zM157 600l53 167h159l-100 -167h-112z" />
    <glyph glyph-name="Ccaron" unicode="&#x10c;" horiz-adv-x="503" 
d="M465 14q-68 -27 -122 -27q-68 0 -124.5 26.5t-97.5 77t-64 122.5t-23 164q0 87 23.5 159t67 123.5t105 80t137.5 28.5q26 0 50.5 -5t50.5 -14v-215q-47 45 -93 45q-65 0 -99 -54t-34 -148q0 -91 33 -142.5t96 -51.5q53 0 106 49zM152 959h157l34 -54l37 54h129l-104 -145
h-160z" />
    <glyph glyph-name="ccaron" unicode="&#x10d;" horiz-adv-x="342" 
d="M320 -8q-36 -3 -53 -3q-53 0 -96.5 21t-75 58t-48.5 87.5t-17 108.5t19 108.5t52 87.5t79 58t100 21q13 0 40 -3v-177q-8 3 -18 3q-30 0 -49.5 -27.5t-19.5 -70.5t19.5 -71t49.5 -28q10 0 18 3v-176zM63 756h143l40 -76l44 76h117l-87 -156h-177z" />
    <glyph glyph-name="Dcaron" unicode="&#x10e;" horiz-adv-x="608" 
d="M53 754h176q87 0 152 -28.5t107.5 -79t64 -120t21.5 -150.5q0 -85 -19.5 -154.5t-60.5 -118.5t-103.5 -76t-147.5 -27h-190v754zM256 182q110 6 110 189q0 91 -28.5 143t-74.5 52h-7v-384zM46 959h157l34 -54l37 54h129l-104 -145h-160z" />
    <glyph glyph-name="dcaron" unicode="&#x10f;" horiz-adv-x="562" 
d="M320 0v30q0 5 1 18.5t2 22.5q-29 -47 -57.5 -64.5t-67.5 -17.5q-79 0 -124 73t-45 202q0 133 45.5 204t123.5 71q22 0 39 -4.5t31.5 -14.5t27.5 -27t27 -41q-3 46 -3 84v289h196v-825h-196zM326 264q0 55 -12 84t-35 29t-35 -29t-12 -84t12 -84t35 -29t35 29t12 84z
M724 694l-77 -87h-52l49 100v23h-49v95h129v-131z" />
    <glyph glyph-name="Dcroat" unicode="&#x110;" horiz-adv-x="608" 
d="M53 328h-46v117h46v309h176q87 0 152 -28.5t107.5 -79t64 -120t21.5 -150.5q0 -85 -19.5 -154.5t-60.5 -118.5t-103.5 -76t-147.5 -27h-190v328zM256 445h60v-117h-60v-146q110 6 110 189q0 91 -28.5 143t-74.5 52h-7v-121z" />
    <glyph glyph-name="dcroat" unicode="&#x111;" horiz-adv-x="562" 
d="M320 0v30q0 5 1 18.5t2 22.5q-29 -47 -57.5 -64.5t-67.5 -17.5q-79 0 -124 73t-45 202q0 133 45.5 204t123.5 71q22 0 39 -4.5t31.5 -14.5t27.5 -27t27 -41q-3 46 -3 84v71h-105v109h105v109h196v-109h46v-109h-46v-607h-196zM326 264q0 55 -12 84t-35 29t-35 -29
t-12 -84t12 -84t35 -29t35 29t12 84z" />
    <glyph glyph-name="Emacron" unicode="&#x112;" horiz-adv-x="465" 
d="M53 0v754h378v-177h-175v-110h157v-171h-157v-115h175v-181h-378zM64 842v109h354v-109h-354z" />
    <glyph glyph-name="emacron" unicode="&#x113;" horiz-adv-x="544" 
d="M509 170q-6 -40 -27 -73.5t-52.5 -57.5t-71 -37t-83.5 -13q-54 0 -99.5 19.5t-77.5 55.5t-50 86.5t-18 113.5t18 113.5t50 86.5t77.5 55.5t99.5 19.5t99 -19t77.5 -54.5t50 -86.5t17.5 -115q0 -8 -0.5 -20.5t-0.5 -20.5h-296q2 -42 17 -64t36 -22q17 0 28.5 10t16.5 29z
M328 322q-4 29 -16.5 49t-36.5 20t-36.5 -20t-16.5 -49h106zM95 625v110h355v-110h-355z" />
    <glyph glyph-name="Edotaccent" unicode="&#x116;" horiz-adv-x="465" 
d="M53 0v754h378v-177h-175v-110h157v-171h-157v-115h175v-181h-378zM119 917q0 24 9 44.5t24.5 36.5t36 25t44.5 9t44.5 -9t36 -25t24.5 -36.5t9 -44.5t-9 -44.5t-24.5 -36t-36 -24.5t-44.5 -9t-44.5 9t-36 24.5t-24.5 36t-9 44.5z" />
    <glyph glyph-name="edotaccent" unicode="&#x117;" horiz-adv-x="544" 
d="M509 170q-6 -40 -27 -73.5t-52.5 -57.5t-71 -37t-83.5 -13q-54 0 -99.5 19.5t-77.5 55.5t-50 86.5t-18 113.5t18 113.5t50 86.5t77.5 55.5t99.5 19.5t99 -19t77.5 -54.5t50 -86.5t17.5 -115q0 -8 -0.5 -20.5t-0.5 -20.5h-296q2 -42 17 -64t36 -22q17 0 28.5 10t16.5 29z
M328 322q-4 29 -16.5 49t-36.5 20t-36.5 -20t-16.5 -49h106zM158 691q0 24 9 44.5t24.5 36.5t36 25t44.5 9t44.5 -9t36 -25t24.5 -36.5t9 -44.5t-9 -44.5t-24.5 -36t-36 -24.5t-44.5 -9t-44.5 9t-36 24.5t-24.5 36t-9 44.5z" />
    <glyph glyph-name="Eogonek" unicode="&#x118;" horiz-adv-x="465" 
d="M53 0v754h378v-177h-175v-110h157v-171h-157v-115h175v-181h-22q-49 -43 -49 -89q0 -51 57 -51q17 0 49 9l-11 -101q-30 -12 -62 -12q-33 0 -60 8.5t-46.5 24t-30 36.5t-10.5 45q0 67 75 130h-268z" />
    <glyph glyph-name="eogonek" unicode="&#x119;" horiz-adv-x="549" 
d="M509 170q-10 -63 -53 -108t-102 -62q-49 -43 -49 -89q0 -51 58 -51q16 0 48 9l-11 -101q-30 -12 -62 -12t-59 8.5t-46.5 23.5t-30.5 36t-11 46q0 61 63 120q-50 4 -91.5 25t-71 56.5t-45.5 84t-16 108.5q0 63 18 113.5t50 86.5t77.5 55.5t99.5 19.5t99 -19t77.5 -54.5
t50 -86.5t17.5 -115q0 -8 -0.5 -20.5t-0.5 -20.5h-296q2 -42 17 -64t36 -22q17 0 28.5 10t16.5 29zM328 322q-4 29 -16.5 49t-36.5 20t-36.5 -20t-16.5 -49h106z" />
    <glyph glyph-name="Ecaron" unicode="&#x11a;" horiz-adv-x="465" 
d="M53 0v754h378v-177h-175v-110h157v-171h-157v-115h175v-181h-378zM60 959h157l34 -54l37 54h129l-104 -145h-160z" />
    <glyph glyph-name="ecaron" unicode="&#x11b;" horiz-adv-x="544" 
d="M509 170q-6 -40 -27 -73.5t-52.5 -57.5t-71 -37t-83.5 -13q-54 0 -99.5 19.5t-77.5 55.5t-50 86.5t-18 113.5t18 113.5t50 86.5t77.5 55.5t99.5 19.5t99 -19t77.5 -54.5t50 -86.5t17.5 -115q0 -8 -0.5 -20.5t-0.5 -20.5h-296q2 -42 17 -64t36 -22q17 0 28.5 10t16.5 29z
M328 322q-4 29 -16.5 49t-36.5 20t-36.5 -20t-16.5 -49h106zM108 756h143l40 -76l44 76h117l-87 -156h-177z" />
    <glyph glyph-name="Gbreve" unicode="&#x11e;" horiz-adv-x="633" 
d="M317 436h282v-31q0 -114 -18 -194t-53 -129.5t-86 -72t-117 -22.5q-69 0 -123 27t-91.5 77.5t-57 122.5t-19.5 163t20.5 163.5t58 123t91.5 77.5t121 27q177 0 258 -187l-197 -72q-5 35 -20 56t-47 21q-41 0 -59 -54t-18 -155t18 -155t59 -54q32 0 51.5 29.5t19.5 79.5
h-73v159zM218 979q14 -35 37 -47.5t65 -12.5q43 0 66 12.5t37 47.5h78q-6 -78 -53 -122.5t-129 -44.5q-78 0 -125 44.5t-55 122.5h79z" />
    <glyph glyph-name="gbreve" unicode="&#x11f;" horiz-adv-x="557" 
d="M517 -15q0 -108 -62.5 -169t-180.5 -61q-109 0 -165.5 46t-70.5 145h198q3 -45 43 -45q44 0 44 77v89q-25 -38 -53.5 -56t-68.5 -18q-38 0 -69.5 19.5t-54 55.5t-35 86t-12.5 110t11.5 110.5t33.5 87t53.5 57t71.5 20.5q35 0 63 -19t60 -67q-1 10 -2 22.5t-1 22.5v30h197
v-543zM233 267q0 -55 12 -84t35 -29t35 29t12 84t-12 84t-35 29t-35 -29t-12 -84zM184 768q14 -35 36 -48t66 -13q40 0 61 13t34 48h79q-17 -168 -176 -168q-78 0 -124.5 45t-54.5 123h79z" />
    <glyph glyph-name="Gcommaaccent" unicode="&#x122;" horiz-adv-x="633" 
d="M317 436h282v-31q0 -114 -18 -194t-53 -129.5t-86 -72t-117 -22.5q-69 0 -123 27t-91.5 77.5t-57 122.5t-19.5 163t20.5 163.5t58 123t91.5 77.5t121 27q177 0 258 -187l-197 -72q-5 35 -20 56t-47 21q-41 0 -59 -54t-18 -155t18 -155t59 -54q32 0 51.5 29.5t19.5 79.5
h-73v159zM399 -183l-76 -87h-53l49 100v24h-49v94h129v-131z" />
    <glyph glyph-name="gcommaaccent" unicode="&#x123;" horiz-adv-x="557" 
d="M517 -15q0 -108 -62.5 -169t-180.5 -61q-109 0 -165.5 46t-70.5 145h198q3 -45 43 -45q44 0 44 77v89q-25 -38 -53.5 -56t-68.5 -18q-38 0 -69.5 19.5t-54 55.5t-35 86t-12.5 110t11.5 110.5t33.5 87t53.5 57t71.5 20.5q35 0 63 -19t60 -67q-1 10 -2 22.5t-1 22.5v30h197
v-543zM233 267q0 -55 12 -84t35 -29t35 29t12 84t-12 84t-35 29t-35 -29t-12 -84zM235 730l76 87h53l-49 -100v-23h49v-94h-129v130z" />
    <glyph glyph-name="Hbar" unicode="&#x126;" horiz-adv-x="610" 
d="M256 487h98v78h-98v-78zM354 0v303h-98v-303h-203v754h203v-79h98v79h203v-754h-203z" />
    <glyph glyph-name="hbar" unicode="&#x127;" horiz-adv-x="555" 
d="M0 716h45v109h196v-109h106v-109h-106v-77v-40t-1 -25q0 -8 -1 -17.5t-2 -20.5q48 112 138 112q64 0 99 -47q36 -48 36 -132v-360h-196v279q0 37 -7 51t-25 14q-41 0 -41 -78v-266h-196v607h-45v109z" />
    <glyph glyph-name="Imacron" unicode="&#x12a;" horiz-adv-x="309" 
d="M256 0h-203v754h203v-754zM0 819v110h309v-110h-309z" />
    <glyph glyph-name="imacron" unicode="&#x12b;" horiz-adv-x="287" 
d="M241 0h-196v528h196v-528zM0 618v110h287v-110h-287z" />
    <glyph glyph-name="Iogonek" unicode="&#x12e;" horiz-adv-x="309" 
d="M140 0q-49 -43 -49 -89q0 -51 58 -51q16 0 48 9l-11 -101q-30 -12 -62 -12q-65 0 -106 32t-41 82q0 67 76 130v754h203v-754h-116z" />
    <glyph glyph-name="iogonek" unicode="&#x12f;" horiz-adv-x="288" 
d="M241 0h-109q-49 -44 -49 -89q0 -51 58 -51q16 0 48 9l-11 -101q-30 -12 -62 -12t-59 8.5t-46.5 23.5t-30.5 36t-11 46q0 66 76 130v528h196v-528zM29 691q0 24 9 44.5t24.5 36.5t36 25t44.5 9t44.5 -9t36 -25t24.5 -36.5t9 -44.5t-9 -44.5t-24.5 -36t-36 -24.5t-44.5 -9
t-44.5 9t-36 24.5t-24.5 36t-9 44.5z" />
    <glyph glyph-name="Idotaccent" unicode="&#x130;" horiz-adv-x="309" 
d="M256 0h-203v754h203v-754zM42 917q0 24 9 44.5t24.5 36.5t36 25t44.5 9t44.5 -9t36 -25t24.5 -36.5t9 -44.5t-9 -44.5t-24.5 -36t-36 -24.5t-44.5 -9t-44.5 9t-36 24.5t-24.5 36t-9 44.5z" />
    <glyph glyph-name="dotlessi" unicode="&#x131;" horiz-adv-x="287" 
d="M241 0h-196v528h196v-528z" />
    <glyph glyph-name="Kcommaaccent" unicode="&#x136;" horiz-adv-x="612" 
d="M606 0h-215l-140 348q2 -20 3.5 -39t1.5 -39v-270h-203v754h203v-256q0 -17 -1.5 -33.5t-3.5 -33.5l125 323h210l-163 -364zM377 -183l-76 -87h-53l49 100v24h-49v94h129v-131z" />
    <glyph glyph-name="kcommaaccent" unicode="&#x137;" horiz-adv-x="560" 
d="M334 0l-75 205q-3 7 -7 22t-11 38v-265h-196v825h196v-535q7 20 14.5 40.5t15.5 41.5l63 156h212l-129 -242l143 -286h-226zM347 -183l-76 -87h-53l49 100v24h-49v94h129v-131z" />
    <glyph glyph-name="kgreenlandic" unicode="&#x138;" horiz-adv-x="560" 
d="M330 0l-71 195q-3 8 -7 22.5t-11 37.5v-255h-196v528h196v-248q7 21 14.5 41t15.5 41l68 166h212l-134 -252l138 -276h-225z" />
    <glyph glyph-name="Lacute" unicode="&#x139;" horiz-adv-x="417" 
d="M409 0h-356v754h203v-573h153v-181zM299 985l-95 -171h-114l50 171h159z" />
    <glyph glyph-name="lacute" unicode="&#x13a;" horiz-adv-x="287" 
d="M241 0h-196v825h196v-825zM265 1044l-95 -171h-114l50 171h159z" />
    <glyph glyph-name="Lcommaaccent" unicode="&#x13b;" horiz-adv-x="417" 
d="M409 0h-356v754h203v-573h153v-181zM288 -183l-76 -87h-53l49 100v24h-49v94h129v-131z" />
    <glyph glyph-name="lcommaaccent" unicode="&#x13c;" horiz-adv-x="287" 
d="M241 0h-196v825h196v-825zM207 -183l-76 -87h-53l49 100v24h-49v94h129v-131z" />
    <glyph glyph-name="Lcaron" unicode="&#x13d;" horiz-adv-x="417" 
d="M409 0h-356v754h203v-573h153v-181zM490 623l-76 -87h-53l49 100v24h-49v94h129v-131z" />
    <glyph glyph-name="lcaron" unicode="&#x13e;" horiz-adv-x="287" 
d="M241 0h-196v825h196v-825zM474 694l-77 -87h-52l49 100v23h-49v95h129v-131z" />
    <glyph glyph-name="Ldot" unicode="&#x13f;" horiz-adv-x="417" 
d="M409 0h-356v754h203v-573h153v-181zM355 414q0 24 9 44.5t24.5 36.5t36 25t44.5 9t44.5 -9t36 -25t24.5 -36.5t9 -44.5t-9 -44.5t-24.5 -36t-36 -24.5t-44.5 -9t-44.5 9t-36 24.5t-24.5 36t-9 44.5z" />
    <glyph glyph-name="ldot" unicode="&#x140;" horiz-adv-x="287" 
d="M241 0h-196v825h196v-825zM349 414q0 24 9 44.5t24.5 36.5t36 25t44.5 9t44.5 -9t36 -25t24.5 -36.5t9 -44.5t-9 -44.5t-24.5 -36t-36 -24.5t-44.5 -9t-44.5 9t-36 24.5t-24.5 36t-9 44.5z" />
    <glyph glyph-name="Lslash" unicode="&#x141;" horiz-adv-x="424" 
d="M61 246l-61 -49v137l61 47v373h203v-264l100 82v-140l-100 -79v-172h153v-181h-356v246z" />
    <glyph glyph-name="lslash" unicode="&#x142;" horiz-adv-x="332" 
d="M68 295l-53 -42v128l53 40v404h196v-313l53 43v-128l-53 -42v-385h-196v295z" />
    <glyph glyph-name="Nacute" unicode="&#x143;" horiz-adv-x="637" 
d="M53 0v754h194l106 -277q8 -21 15.5 -45t15 -47.5t13.5 -45.5t11 -40q-6 79 -12.5 148.5t-6.5 114.5v192h195v-754h-195l-102 277q-32 86 -52 158q6 -79 9 -138.5t3 -104.5v-192h-194zM451 985l-95 -171h-114l50 171h159z" />
    <glyph glyph-name="nacute" unicode="&#x144;" horiz-adv-x="555" 
d="M314 0v276q0 39 -7.5 53.5t-26.5 14.5q-39 0 -39 -78v-266h-196v528h196v-30q0 -13 -0.5 -31t-3.5 -44q27 57 59.5 86.5t78.5 29.5q66 0 100.5 -49t34.5 -130v-360h-196zM222 600l53 167h159l-100 -167h-112z" />
    <glyph glyph-name="Ncommaaccent" unicode="&#x145;" horiz-adv-x="637" 
d="M53 0v754h194l106 -277q8 -21 15.5 -45t15 -47.5t13.5 -45.5t11 -40q-6 79 -12.5 148.5t-6.5 114.5v192h195v-754h-195l-102 277q-32 86 -52 158q6 -79 9 -138.5t3 -104.5v-192h-194zM383 -183l-76 -87h-53l49 100v24h-49v94h129v-131z" />
    <glyph glyph-name="ncommaaccent" unicode="&#x146;" horiz-adv-x="555" 
d="M314 0v276q0 39 -7.5 53.5t-26.5 14.5q-39 0 -39 -78v-266h-196v528h196v-30q0 -13 -0.5 -31t-3.5 -44q27 57 59.5 86.5t78.5 29.5q66 0 100.5 -49t34.5 -130v-360h-196zM342 -183l-76 -87h-53l49 100v24h-49v94h129v-131z" />
    <glyph glyph-name="Ncaron" unicode="&#x147;" horiz-adv-x="637" 
d="M53 0v754h194l106 -277q8 -21 15.5 -45t15 -47.5t13.5 -45.5t11 -40q-6 79 -12.5 148.5t-6.5 114.5v192h195v-754h-195l-102 277q-32 86 -52 158q6 -79 9 -138.5t3 -104.5v-192h-194zM140 959h157l34 -54l37 54h129l-104 -145h-160z" />
    <glyph glyph-name="ncaron" unicode="&#x148;" horiz-adv-x="555" 
d="M314 0v276q0 39 -7.5 53.5t-26.5 14.5q-39 0 -39 -78v-266h-196v528h196v-30q0 -13 -0.5 -31t-3.5 -44q27 57 59.5 86.5t78.5 29.5q66 0 100.5 -49t34.5 -130v-360h-196zM111 756h143l40 -76l44 76h117l-87 -156h-177z" />
    <glyph glyph-name="napostrophe" unicode="&#x149;" horiz-adv-x="555" 
d="M314 0v276q0 39 -7.5 53.5t-26.5 14.5q-39 0 -39 -78v-266h-196v528h196v-30q0 -13 -0.5 -31t-3.5 -44q27 57 59.5 86.5t78.5 29.5q66 0 100.5 -49t34.5 -130v-360h-196zM127 694l-77 -87h-52l49 100v23h-49v95h129v-131z" />
    <glyph glyph-name="Eng" unicode="&#x14a;" horiz-adv-x="636" 
d="M53 0v754h194l106 -277q8 -21 15.5 -45t15 -47.5t13.5 -45.5t11 -40q-6 79 -12.5 148.5t-6.5 114.5v192h195v-806q0 -83 -35 -131t-100 -48l-93 195q28 0 31 41l-100 272q-32 86 -52 158q6 -79 9 -138.5t3 -104.5v-192h-194z" />
    <glyph glyph-name="eng" unicode="&#x14b;" horiz-adv-x="555" 
d="M282 -36q18 0 25 14t7 51v250q0 37 -7 51t-25 14q-41 0 -41 -78v-266h-196v528h196q0 -20 -0.5 -36.5t-1.5 -30.5l-2 -34q48 112 138 112q66 0 100.5 -49t34.5 -130v-412q0 -82 -34.5 -130.5t-100.5 -48.5z" />
    <glyph glyph-name="Omacron" unicode="&#x14c;" horiz-adv-x="641" 
d="M608 377q0 -87 -20.5 -159t-58.5 -123.5t-91 -79.5t-117 -28q-65 0 -117.5 28t-90.5 79.5t-58.5 123.5t-20.5 159t20.5 159t58.5 123.5t90.5 80t117.5 28.5q64 0 117 -28.5t91 -80t58.5 -123.5t20.5 -159zM397 377q0 97 -20 149t-56 52t-56 -52t-20 -149t20 -148.5
t56 -51.5t56 51.5t20 148.5zM142 842v109h354v-109h-354z" />
    <glyph glyph-name="omacron" unicode="&#x14d;" horiz-adv-x="551" 
d="M520 264q0 -63 -17.5 -113.5t-49.5 -86.5t-77 -55.5t-101 -19.5t-101 19.5t-77 55.5t-49.5 86.5t-17.5 113.5t17.5 113.5t49.5 86.5t77 55.5t101 19.5t101 -19.5t77 -55.5t49.5 -86.5t17.5 -113.5zM331 264q0 63 -16 95.5t-40 32.5t-39.5 -32.5t-15.5 -95.5t15.5 -95.5
t39.5 -32.5t40 32.5t16 95.5zM99 625v110h355v-110h-355z" />
    <glyph glyph-name="Ohungarumlaut" unicode="&#x150;" horiz-adv-x="641" 
d="M608 377q0 -87 -20.5 -159t-58.5 -123.5t-91 -79.5t-117 -28q-65 0 -117.5 28t-90.5 79.5t-58.5 123.5t-20.5 159t20.5 159t58.5 123.5t90.5 80t117.5 28.5q64 0 117 -28.5t91 -80t58.5 -123.5t20.5 -159zM397 377q0 97 -20 149t-56 52t-56 -52t-20 -149t20 -148.5
t56 -51.5t56 51.5t20 148.5zM175 814l53 167h139l-91 -167h-101zM363 814l54 167h139l-92 -167h-101z" />
    <glyph glyph-name="ohungarumlaut" unicode="&#x151;" horiz-adv-x="551" 
d="M520 264q0 -63 -17.5 -113.5t-49.5 -86.5t-77 -55.5t-101 -19.5t-101 19.5t-77 55.5t-49.5 86.5t-17.5 113.5t17.5 113.5t49.5 86.5t77 55.5t101 19.5t101 -19.5t77 -55.5t49.5 -86.5t17.5 -113.5zM331 264q0 63 -16 95.5t-40 32.5t-39.5 -32.5t-15.5 -95.5t15.5 -95.5
t39.5 -32.5t40 32.5t16 95.5zM131 600l53 167h139l-91 -167h-101zM319 600l53 167h140l-92 -167h-101z" />
    <glyph glyph-name="OE" unicode="&#x152;" horiz-adv-x="804" 
d="M399 0q-18 -6 -37 -9.5t-41 -3.5q-65 0 -117.5 28t-90.5 79.5t-58.5 123.5t-20.5 159t20.5 159t58.5 123.5t90.5 80t117.5 28.5q44 0 81 -14h368v-177h-175v-110h157v-171h-157v-115h175v-181h-371zM397 377q0 97 -20 149t-56 52t-56 -52t-20 -149t20 -148.5t56 -51.5
t56 51.5t20 148.5z" />
    <glyph glyph-name="oe" unicode="&#x153;" horiz-adv-x="834" 
d="M794 170q-6 -40 -27 -73.5t-52.5 -57.5t-71 -37t-83.5 -13q-82 0 -142 43q-60 -43 -143 -43q-56 0 -101 19.5t-77 55.5t-49.5 86.5t-17.5 113.5t17.5 113.5t49.5 86.5t77 55.5t101 19.5q42 0 78 -11.5t65 -32.5q29 21 64.5 32.5t77.5 11.5q54 0 99 -19t77.5 -54.5
t50 -86.5t17.5 -115q0 -8 -0.5 -20.5t-0.5 -20.5h-296q2 -42 17 -64t36 -22q17 0 28.5 10t16.5 29zM331 264q0 63 -16 95.5t-40 32.5t-39.5 -32.5t-15.5 -95.5t15.5 -95.5t39.5 -32.5t40 32.5t16 95.5zM613 322q-4 29 -16.5 49t-36.5 20t-36.5 -20t-16.5 -49h106z" />
    <glyph glyph-name="Racute" unicode="&#x154;" horiz-adv-x="604" 
d="M589 0h-220l-113 309v-309h-203v754h197q82 0 139.5 -18.5t93.5 -51.5t52.5 -79.5t16.5 -102.5q0 -137 -115 -189zM256 408h14q40 0 61 23.5t21 66.5t-21 66t-61 23h-14v-179zM387 985l-95 -171h-114l50 171h159z" />
    <glyph glyph-name="racute" unicode="&#x155;" horiz-adv-x="397" 
d="M45 0v528h196v-28q0 -13 -0.5 -32t-3.5 -45q10 22 23.5 43t30.5 37t37.5 26t46.5 10h11v-220q-17 11 -32.5 15t-28.5 4q-39 0 -61.5 -28.5t-22.5 -82.5v-227h-196zM133 600l53 167h159l-100 -167h-112z" />
    <glyph glyph-name="Rcommaaccent" unicode="&#x156;" horiz-adv-x="604" 
d="M589 0h-220l-113 309v-309h-203v754h197q82 0 139.5 -18.5t93.5 -51.5t52.5 -79.5t16.5 -102.5q0 -137 -115 -189zM256 408h14q40 0 61 23.5t21 66.5t-21 66t-61 23h-14v-179zM365 -183l-76 -87h-53l49 100v24h-49v94h129v-131z" />
    <glyph glyph-name="rcommaaccent" unicode="&#x157;" horiz-adv-x="397" 
d="M45 0v528h196v-28q0 -13 -0.5 -32t-3.5 -45q10 22 23.5 43t30.5 37t37.5 26t46.5 10h11v-220q-17 11 -32.5 15t-28.5 4q-39 0 -61.5 -28.5t-22.5 -82.5v-227h-196zM207 -183l-76 -87h-53l49 100v24h-49v94h129v-131z" />
    <glyph glyph-name="Rcaron" unicode="&#x158;" horiz-adv-x="604" 
d="M589 0h-220l-113 309v-309h-203v754h197q82 0 139.5 -18.5t93.5 -51.5t52.5 -79.5t16.5 -102.5q0 -137 -115 -189zM256 408h14q40 0 61 23.5t21 66.5t-21 66t-61 23h-14v-179zM67 959h157l34 -54l37 54h129l-104 -145h-160z" />
    <glyph glyph-name="rcaron" unicode="&#x159;" horiz-adv-x="397" 
d="M45 0v528h196v-28q0 -13 -0.5 -32t-3.5 -45q10 22 23.5 43t30.5 37t37.5 26t46.5 10h11v-220q-17 11 -32.5 15t-28.5 4q-39 0 -61.5 -28.5t-22.5 -82.5v-227h-196zM42 756h143l40 -76l44 76h117l-87 -156h-177z" />
    <glyph glyph-name="Sacute" unicode="&#x15a;" horiz-adv-x="457" 
d="M37 255q61 -82 130 -82q26 0 42.5 14t16.5 35q0 30 -36 59l-33 26q-66 51 -94.5 100.5t-28.5 112.5q0 52 17.5 97t48.5 78.5t73 53t90 19.5q72 0 146 -39v-230q-25 38 -56.5 60.5t-62.5 22.5q-23 0 -38.5 -13.5t-15.5 -32.5q0 -30 41 -60l33 -24q64 -47 92 -95.5
t28 -113.5q0 -56 -18 -102.5t-49.5 -81t-76 -53.5t-96.5 -19q-72 0 -153 32v236zM378 985l-95 -171h-114l50 171h159z" />
    <glyph glyph-name="sacute" unicode="&#x15b;" horiz-adv-x="446" 
d="M96 189q26 -28 51.5 -41t48.5 -13q38 0 38 27q0 24 -51 42q-139 49 -139 155q0 39 16.5 72t46 57t69 37.5t85.5 13.5q77 0 157 -43l-66 -140q-20 21 -42.5 32t-38.5 11q-12 0 -23.5 -5t-11.5 -18q0 -17 15.5 -27t44.5 -23q34 -15 59 -29.5t40.5 -32t23 -39.5t7.5 -51
q0 -41 -16 -75t-44 -58.5t-67 -38t-84 -13.5q-24 0 -44 2t-41 8t-45.5 17t-56.5 28zM172 600l53 167h159l-100 -167h-112z" />
    <glyph glyph-name="Scedilla" unicode="&#x15e;" horiz-adv-x="457" 
d="M37 255q61 -82 130 -82q26 0 42.5 14t16.5 35q0 30 -36 59l-33 26q-66 51 -94.5 100.5t-28.5 112.5q0 52 17.5 97t48.5 78.5t73 53t90 19.5q72 0 146 -39v-230q-25 38 -56.5 60.5t-62.5 22.5q-23 0 -38.5 -13.5t-15.5 -32.5q0 -30 41 -60l33 -24q64 -47 92 -95.5
t28 -113.5q0 -56 -18 -102.5t-49.5 -81t-76 -53.5t-96.5 -19q-72 0 -153 32v236zM296 -120l-159 -150l-82 52l136 166z" />
    <glyph glyph-name="scedilla" unicode="&#x15f;" horiz-adv-x="446" 
d="M96 189q26 -28 51.5 -41t48.5 -13q38 0 38 27q0 24 -51 42q-139 49 -139 155q0 39 16.5 72t46 57t69 37.5t85.5 13.5q77 0 157 -43l-66 -140q-20 21 -42.5 32t-38.5 11q-12 0 -23.5 -5t-11.5 -18q0 -17 15.5 -27t44.5 -23q34 -15 59 -29.5t40.5 -32t23 -39.5t7.5 -51
q0 -41 -16 -75t-44 -58.5t-67 -38t-84 -13.5q-24 0 -44 2t-41 8t-45.5 17t-56.5 28zM313 -112l-128 -133l-75 54l111 139z" />
    <glyph glyph-name="Scaron" unicode="&#x160;" horiz-adv-x="457" 
d="M37 255q61 -82 130 -82q26 0 42.5 14t16.5 35q0 30 -36 59l-33 26q-66 51 -94.5 100.5t-28.5 112.5q0 52 17.5 97t48.5 78.5t73 53t90 19.5q72 0 146 -39v-230q-25 38 -56.5 60.5t-62.5 22.5q-23 0 -38.5 -13.5t-15.5 -32.5q0 -30 41 -60l33 -24q64 -47 92 -95.5
t28 -113.5q0 -56 -18 -102.5t-49.5 -81t-76 -53.5t-96.5 -19q-72 0 -153 32v236zM75 959h157l34 -54l37 54h129l-104 -145h-160z" />
    <glyph glyph-name="scaron" unicode="&#x161;" horiz-adv-x="446" 
d="M96 189q26 -28 51.5 -41t48.5 -13q38 0 38 27q0 24 -51 42q-139 49 -139 155q0 39 16.5 72t46 57t69 37.5t85.5 13.5q77 0 157 -43l-66 -140q-20 21 -42.5 32t-38.5 11q-12 0 -23.5 -5t-11.5 -18q0 -17 15.5 -27t44.5 -23q34 -15 59 -29.5t40.5 -32t23 -39.5t7.5 -51
q0 -41 -16 -75t-44 -58.5t-67 -38t-84 -13.5q-24 0 -44 2t-41 8t-45.5 17t-56.5 28zM75 756h143l40 -76l44 76h117l-87 -156h-177z" />
    <glyph glyph-name="Tcommaaccent" unicode="&#x162;" horiz-adv-x="434" 
d="M319 0h-204v573h-115v181h434v-181h-115v-573zM275 -181l-76 -87h-53l49 100v24h-49v94h129v-131z" />
    <glyph glyph-name="tcommaaccent" unicode="&#x163;" horiz-adv-x="340" 
d="M266 0h-194v370h-56v158h56v155h194v-155h69v-158h-69v-370zM235 -183l-76 -87h-53l49 100v24h-49v94h129v-131z" />
    <glyph glyph-name="Tcaron" unicode="&#x164;" horiz-adv-x="434" 
d="M319 0h-204v573h-115v181h434v-181h-115v-573zM46 959h157l34 -54l37 54h129l-104 -145h-160z" />
    <glyph glyph-name="tcaron" unicode="&#x165;" horiz-adv-x="340" 
d="M266 0h-194v370h-56v158h56v155h194v-155h69v-158h-69v-370zM473 694l-77 -87h-52l49 100v23h-49v95h129v-131z" />
    <glyph glyph-name="Tbar" unicode="&#x166;" horiz-adv-x="434" 
d="M319 528h61v-158h-61v-370h-204v370h-61v158h61v45h-115v181h434v-181h-115v-45z" />
    <glyph glyph-name="tbar" unicode="&#x167;" horiz-adv-x="340" 
d="M16 295h56v75h-56v158h56v155h196v-155h65v-158h-65v-75h65v-157h-65v-138h-196v138h-56v157z" />
    <glyph glyph-name="Umacron" unicode="&#x16a;" horiz-adv-x="618" 
d="M565 754v-504q0 -65 -18.5 -114t-52 -82t-80.5 -50t-104 -17t-104.5 17t-81 50t-52.5 82t-19 114v504h204v-486q0 -50 12 -70.5t41 -20.5t40 20.5t11 70.5v486h204zM133 842v109h354v-109h-354z" />
    <glyph glyph-name="umacron" unicode="&#x16b;" horiz-adv-x="565" 
d="M241 528v-298q0 -39 8 -58.5t34 -19.5t33.5 19.5t7.5 58.5v298h196v-324q0 -50 -16.5 -90t-47.5 -68t-75 -42.5t-98 -14.5t-98 14.5t-75 42.5t-48 68t-17 90v324h196zM105 625v110h355v-110h-355z" />
    <glyph glyph-name="Uring" unicode="&#x16e;" horiz-adv-x="618" 
d="M565 754v-504q0 -65 -18.5 -114t-52 -82t-80.5 -50t-104 -17t-104.5 17t-81 50t-52.5 82t-19 114v504h204v-486q0 -50 12 -70.5t41 -20.5t40 20.5t11 70.5v486h204zM408 904q0 -20 -8 -37.5t-21 -31t-31 -21t-37 -7.5q-21 0 -39.5 8t-31.5 21.5t-20.5 31.5t-7.5 38
q0 42 28 69.5t70 27.5q20 0 37.5 -7.5t31 -21t21.5 -31.5t8 -39zM352 904q0 18 -12 30.5t-30 12.5q-17 0 -29 -12t-12 -30q0 -17 12.5 -29.5t29.5 -12.5t29 12.5t12 28.5z" />
    <glyph glyph-name="uring" unicode="&#x16f;" horiz-adv-x="565" 
d="M241 528v-298q0 -39 8 -58.5t34 -19.5t33.5 19.5t7.5 58.5v298h196v-324q0 -50 -16.5 -90t-47.5 -68t-75 -42.5t-98 -14.5t-98 14.5t-75 42.5t-48 68t-17 90v324h196zM393 699q0 -22 -8.5 -41.5t-23.5 -34t-34.5 -23t-41.5 -8.5t-42 8.5t-35 23t-23.5 34t-8.5 42.5
q0 22 8.5 42t23 35t34 23.5t42.5 8.5t43 -9t34.5 -24t23 -35t8.5 -42zM329 700q0 20 -13 33.5t-32 13.5q-20 0 -33 -13.5t-13 -33.5q0 -19 13 -32.5t33 -13.5q19 0 32 13.5t13 32.5z" />
    <glyph glyph-name="Uhungarumlaut" unicode="&#x170;" horiz-adv-x="618" 
d="M565 754v-504q0 -65 -18.5 -114t-52 -82t-80.5 -50t-104 -17t-104.5 17t-81 50t-52.5 82t-19 114v504h204v-486q0 -50 12 -70.5t41 -20.5t40 20.5t11 70.5v486h204zM167 814l53 167h139l-91 -167h-101zM355 814l54 167h139l-92 -167h-101z" />
    <glyph glyph-name="uhungarumlaut" unicode="&#x171;" horiz-adv-x="565" 
d="M241 528v-298q0 -39 8 -58.5t34 -19.5t33.5 19.5t7.5 58.5v298h196v-324q0 -50 -16.5 -90t-47.5 -68t-75 -42.5t-98 -14.5t-98 14.5t-75 42.5t-48 68t-17 90v324h196zM137 600l53 167h139l-91 -167h-101zM325 600l53 167h140l-92 -167h-101z" />
    <glyph glyph-name="Uogonek" unicode="&#x172;" horiz-adv-x="617" 
d="M565 754v-504q0 -40 -9.5 -80t-29 -74t-49.5 -59.5t-72 -36.5q-48 -45 -48 -89q0 -51 58 -51q16 0 48 9l-11 -101q-30 -12 -62 -12t-59 8.5t-46.5 23.5t-30.5 36t-11 46q0 62 61 117q-57 2 -103.5 20t-79 51t-50.5 81t-18 111v504h203v-486q0 -50 12 -70.5t41 -20.5
q30 0 41 20.5t11 70.5v486h204z" />
    <glyph glyph-name="uogonek" unicode="&#x173;" horiz-adv-x="565" 
d="M241 528v-298q0 -39 8 -58.5t34 -19.5t33.5 19.5t7.5 58.5v298h196v-324q0 -82 -43 -135.5t-118 -70.5q-45 -42 -45 -87q0 -51 58 -51q16 0 48 9l-11 -101q-30 -12 -62 -12q-65 0 -106 32t-41 82q0 61 62 120q-100 5 -158.5 61.5t-58.5 152.5v324h196z" />
    <glyph glyph-name="Ydieresis" unicode="&#x178;" horiz-adv-x="566" 
d="M391 0h-204v319l-187 435h212l37 -112q11 -32 19.5 -62.5t15.5 -58.5q7 28 15 58.5t19 62.5l37 112h211l-175 -435v-319zM477 895q0 -33 -24 -57t-57 -24q-35 0 -59 24t-24 58t24 58t58 24t58 -24.5t24 -58.5zM252 896q0 -17 -7 -32t-18 -26t-26 -17.5t-31 -6.5
q-33 0 -57 24.5t-24 57.5q0 34 24 58t57 24q34 0 58 -24t24 -58z" />
    <glyph glyph-name="Zacute" unicode="&#x179;" horiz-adv-x="582" 
d="M538 0h-519v20l176 400q27 62 48 98t37 59h-216v177h499v-20l-185 -412q-17 -39 -36 -76.5t-36 -73.5q18 7 36 8t38 1h158v-181zM440 985l-95 -171h-114l50 171h159z" />
    <glyph glyph-name="zacute" unicode="&#x17a;" horiz-adv-x="492" 
d="M444 0h-425l128 274l22 44t28 52h-149v158h425l-124 -269q-11 -24 -24 -48.5t-28 -50.5h147v-160zM216 600l53 167h159l-100 -167h-112z" />
    <glyph glyph-name="Zdotaccent" unicode="&#x17b;" horiz-adv-x="582" 
d="M538 0h-519v20l176 400q27 62 48 98t37 59h-216v177h499v-20l-185 -412q-17 -39 -36 -76.5t-36 -73.5q18 7 36 8t38 1h158v-181zM205 917q0 24 9 44.5t24.5 36.5t36 25t44.5 9t44.5 -9t36 -25t24.5 -36.5t9 -44.5t-9 -44.5t-24.5 -36t-36 -24.5t-44.5 -9t-44.5 9
t-36 24.5t-24.5 36t-9 44.5z" />
    <glyph glyph-name="zdotaccent" unicode="&#x17c;" horiz-adv-x="492" 
d="M444 0h-425l128 274l22 44t28 52h-149v158h425l-124 -269q-11 -24 -24 -48.5t-28 -50.5h147v-160zM145 691q0 24 9 44.5t24.5 36.5t36 25t44.5 9t44.5 -9t36 -25t24.5 -36.5t9 -44.5t-9 -44.5t-24.5 -36t-36 -24.5t-44.5 -9t-44.5 9t-36 24.5t-24.5 36t-9 44.5z" />
    <glyph glyph-name="Zcaron" unicode="&#x17d;" horiz-adv-x="582" 
d="M538 0h-519v20l176 400q27 62 48 98t37 59h-216v177h499v-20l-185 -412q-17 -39 -36 -76.5t-36 -73.5q18 7 36 8t38 1h158v-181zM136 959h157l34 -54l37 54h129l-104 -145h-160z" />
    <glyph glyph-name="zcaron" unicode="&#x17e;" horiz-adv-x="492" 
d="M444 0h-425l128 274l22 44t28 52h-149v158h425l-124 -269q-11 -24 -24 -48.5t-28 -50.5h147v-160zM88 756h143l40 -76l44 76h117l-87 -156h-177z" />
    <glyph glyph-name="florin" unicode="&#x192;" horiz-adv-x="603" 
d="M461 370h-60l-55 -324q-17 -101 -65.5 -148.5t-135.5 -47.5q-34 0 -85 15l24 161q15 -2 24 -2.5t12 -0.5q26 0 37.5 9t15.5 32l51 306h-62l25 158h63l19 112q9 51 22.5 86.5t35.5 58.5t53 33.5t73 10.5q15 0 32.5 -1.5t35.5 -6.5l21 -5l-21 -156q-6 2 -15 3t-11 1
q-25 0 -35.5 -7t-15.5 -32l-17 -97h61z" />
    <glyph glyph-name="circumflex" unicode="&#x2c6;" horiz-adv-x="565" 
d="M455 600h-143l-41 76l-43 -76h-117l87 156h177z" />
    <glyph glyph-name="caron" unicode="&#x2c7;" horiz-adv-x="565" 
d="M111 756h143l40 -76l44 76h117l-87 -156h-177z" />
    <glyph glyph-name="breve" unicode="&#x2d8;" horiz-adv-x="565" 
d="M184 768q14 -35 36 -48t66 -13q40 0 61 13t34 48h79q-17 -168 -176 -168q-78 0 -124.5 45t-54.5 123h79z" />
    <glyph glyph-name="dotaccent" unicode="&#x2d9;" horiz-adv-x="312" 
d="M42 691q0 24 9 44.5t24.5 36.5t36 25t44.5 9t44.5 -9t36 -25t24.5 -36.5t9 -44.5t-9 -44.5t-24.5 -36t-36 -24.5t-44.5 -9t-44.5 9t-36 24.5t-24.5 36t-9 44.5z" />
    <glyph glyph-name="ring" unicode="&#x2da;" horiz-adv-x="565" 
d="M418 699q0 -22 -8.5 -41.5t-23.5 -34t-34.5 -23t-41.5 -8.5t-42 8.5t-35 23t-23.5 34t-8.5 42.5q0 22 8.5 42t23 35t34 23.5t42.5 8.5t43 -9t34.5 -24t23 -35t8.5 -42zM354 700q0 20 -13 33.5t-32 13.5q-20 0 -33 -13.5t-13 -33.5q0 -19 13 -32.5t33 -13.5q19 0 32 13.5
t13 32.5z" />
    <glyph glyph-name="ogonek" unicode="&#x2db;" horiz-adv-x="611" 
d="M358 0q-48 -44 -48 -89q0 -51 57 -51q17 0 49 9l-12 -101q-30 -12 -62 -12t-59 8.5t-46.5 23.5t-30.5 36t-11 46q0 66 76 130h87z" />
    <glyph glyph-name="tilde" unicode="&#x2dc;" horiz-adv-x="565" 
d="M475 752v-16q0 -59 -32.5 -96.5t-86.5 -37.5q-35 0 -85 23q-32 15 -48 15q-27 0 -30 -40h-103q0 73 30 111t85 38q15 0 33 -4t38 -12l34 -14q8 -3 16 -5.5t16 -2.5q29 0 32 41h101z" />
    <glyph glyph-name="hungarumlaut" unicode="&#x2dd;" horiz-adv-x="565" 
d="M136 600l53 167h139l-91 -167h-101zM324 600l53 167h140l-92 -167h-101z" />
    <glyph glyph-name="endash" unicode="&#x2013;" 
d="M535 196h-469v151h469v-151z" />
    <glyph glyph-name="emdash" unicode="&#x2014;" horiz-adv-x="735" 
d="M735 196h-735v151h735v-151z" />
    <glyph glyph-name="quoteleft" unicode="&#x2018;" horiz-adv-x="375" 
d="M45 391l132 363h161l-93 -363h-200z" />
    <glyph glyph-name="quoteright" unicode="&#x2019;" horiz-adv-x="368" 
d="M330 754l-132 -363h-160l92 363h200z" />
    <glyph glyph-name="quotesinglbase" unicode="&#x201a;" horiz-adv-x="368" 
d="M330 180l-132 -362h-160l92 362h200z" />
    <glyph glyph-name="quotedblleft" unicode="&#x201c;" horiz-adv-x="643" 
d="M45 391l132 363h161l-93 -363h-200zM313 391l132 363h160l-92 -363h-200z" />
    <glyph glyph-name="quotedblright" unicode="&#x201d;" horiz-adv-x="643" 
d="M605 754l-131 -363h-161l92 363h200zM338 754l-132 -363h-161l93 363h200z" />
    <glyph glyph-name="quotedblbase" unicode="&#x201e;" horiz-adv-x="635" 
d="M598 180l-132 -362h-161l92 362h201zM330 180l-132 -362h-160l92 362h200z" />
    <glyph glyph-name="dagger" unicode="&#x2020;" horiz-adv-x="603" 
d="M392 -235h-181v717h-181v158h181v185h181v-185h181v-158h-181v-717z" />
    <glyph glyph-name="daggerdbl" unicode="&#x2021;" horiz-adv-x="603" 
d="M211 483h-181v156h181v186h181v-186h181v-156h-181v-225h181v-155h-181v-338h-181v338h-181v155h181v225z" />
    <glyph glyph-name="bullet" unicode="&#x2022;" horiz-adv-x="754" 
d="M222 384q0 32 12 60.5t33 49.5t49.5 33t60.5 12t60.5 -12t49.5 -33t33 -49.5t12 -60.5t-12 -60.5t-33 -49.5t-49.5 -33t-60.5 -12t-60.5 12t-49.5 33t-33 49.5t-12 60.5z" />
    <glyph glyph-name="ellipsis" unicode="&#x2026;" horiz-adv-x="1130" 
d="M70 103q0 24 9 44.5t24.5 36t36 24.5t44.5 9t44.5 -9t36 -24.5t24.5 -36t9 -44.5t-9 -44.5t-24.5 -36t-36 -24.5t-44.5 -9t-44.5 9t-36 24.5t-24.5 36t-9 44.5zM832 103q0 24 9 44.5t24.5 36t36 24.5t44.5 9t44.5 -9t36 -24.5t24.5 -36t9 -44.5t-9 -44.5t-24.5 -36
t-36 -24.5t-44.5 -9t-44.5 9t-36 24.5t-24.5 36t-9 44.5zM451 103q0 24 9 44.5t24.5 36t36 24.5t44.5 9t44.5 -9t36 -24.5t24.5 -36t9 -44.5t-9 -44.5t-24.5 -36t-36 -24.5t-44.5 -9t-44.5 9t-36 24.5t-24.5 36t-9 44.5z" />
    <glyph glyph-name="perthousand" unicode="&#x2030;" horiz-adv-x="1142" 
d="M1112 173q0 -41 -11.5 -75t-33 -58.5t-52 -38t-67.5 -13.5t-67.5 13.5t-52 38t-33 58.5t-11.5 75t11.5 75t33 58.5t52 38t67.5 13.5t67.5 -13.5t52 -38t33 -58.5t11.5 -75zM980 173q0 73 -32 73t-32 -73q0 -74 32 -74t32 74zM161 -26l-78 56l533 755l81 -57zM358 581
q0 -41 -11.5 -75t-33 -58.5t-52 -38t-67.5 -13.5t-67.5 13.5t-52 38t-33 58.5t-11.5 75t11.5 75t33 58.5t52 38t67.5 13.5t67.5 -13.5t52 -38t33 -58.5t11.5 -75zM226 581q0 73 -32 73t-32 -73q0 -74 32 -74t32 74zM750 173q0 -41 -11.5 -75t-33 -58.5t-52 -38t-67.5 -13.5
t-67.5 13.5t-52 38t-33 58.5t-11.5 75t11.5 75t33 58.5t52 38t67.5 13.5t67.5 -13.5t52 -38t33 -58.5t11.5 -75zM618 173q0 73 -32 73t-32 -73q0 -74 32 -74t32 74z" />
    <glyph glyph-name="guilsinglleft" unicode="&#x2039;" horiz-adv-x="319" 
d="M202 44l-172 227l172 228l88 -66l-129 -162l129 -161z" />
    <glyph glyph-name="guilsinglright" unicode="&#x203a;" horiz-adv-x="319" 
d="M118 44l-88 66l129 161l-129 162l88 66l172 -228z" />
    <glyph glyph-name="fraction" unicode="&#x2044;" horiz-adv-x="157" 
d="M-100 -50l-81 45l435 809l84 -44z" />
    <glyph glyph-name="Euro" unicode="&#x20ac;" 
d="M22 487h43q13 65 40 117t66 88.5t88 56t105 19.5q13 0 35.5 -2.5t46 -7t45 -11t34.5 -14.5l-49 -181q-34 27 -83 27q-43 0 -71.5 -24t-43.5 -68h181l-21 -81h-175v-29v-15.5t1 -15.5h158l-21 -81h-121q32 -82 113 -82q26 0 45.5 6.5t37.5 20.5l49 -188
q-13 -8 -34.5 -14.5t-45 -11t-46 -7t-35.5 -2.5q-56 0 -104.5 19t-87.5 55t-66.5 87.5t-40.5 116.5h-43v81h34q-1 8 -1 15.5v15.5v29h-33v81z" />
    <glyph glyph-name="trademark" unicode="&#x2122;" horiz-adv-x="761" 
d="M194 324h-126v321h-68v109h262v-109h-68v-321zM744 324h-132l-15 221l-37 -221h-102l-37 221l-15 -221h-132l51 430h145l39 -185l39 185h145z" />
    <glyph glyph-name="minus" unicode="&#x2212;" horiz-adv-x="603" 
d="M45 326v117h513v-117h-513z" />
    <glyph glyph-name="uni2215" unicode="&#x2215;" horiz-adv-x="157" 
d="M-100 -50l-81 45l435 809l84 -44z" />
    <glyph glyph-name="uni2219" unicode="&#x2219;" horiz-adv-x="301" 
d="M35 379q0 24 9 44.5t25 36.5t36.5 25t44.5 9t44.5 -9t36.5 -25t25 -36.5t9 -44.5t-9 -44.5t-25 -36.5t-36.5 -25t-44.5 -9t-44.5 9t-36.5 25t-25 36.5t-9 44.5z" />
    <glyph glyph-name="lozenge" unicode="&#x25ca;" horiz-adv-x="754" 
d="M377 784l294 -407l-294 -406l-294 406zM377 684l-223 -307l223 -306l223 306z" />
    <glyph glyph-name="foundryicon" unicode="&#xe001;" horiz-adv-x="578" 
d="M423 234q28 0 51 10.5t41 28.5q-14 -36 -37 -66t-54 -51.5t-67.5 -34t-76.5 -12.5q-71 0 -127.5 34.5t-89.5 90.5h40v154h2l118 -154h65v250h-65v-152h-3l-117 152h-40q33 57 90 91t127 34q40 0 76.5 -12t67.5 -33.5t54 -51.5t36 -66q-35 38 -91 38h-92v-250h92zM396 429
h15q31 0 51 -18t20 -52q0 -36 -21.5 -52.5t-50.5 -16.5h-14v139z" />
    <glyph glyph-name="horizontalbar" unicode="&#xe003;" horiz-adv-x="340" 
d="M16 370v158h317v-158h-317z" />
    <glyph glyph-name="Euro.alt01" unicode="&#xe010;" 
d="M22 487h43q13 65 40 117t66 88.5t88 56t105 19.5q13 0 35.5 -2.5t46 -7t45 -11t34.5 -14.5l-49 -181q-34 27 -83 27q-43 0 -71.5 -24t-43.5 -68h181l-21 -81h-175v-29v-15.5t1 -15.5h158l-21 -81h-121q32 -82 113 -82q26 0 45.5 6.5t37.5 20.5l49 -188
q-13 -8 -34.5 -14.5t-45 -11t-46 -7t-35.5 -2.5q-56 0 -104.5 19t-87.5 55t-66.5 87.5t-40.5 116.5h-43v81h34q-1 8 -1 15.5v15.5v29h-33v81z" />
    <glyph glyph-name="Euro.alt02" unicode="&#xe011;" 
d="M534 580q-40 7 -73.5 8.5t-73.5 1.5q-33 0 -55.5 -6t-37.5 -17.5t-24.5 -29t-16.5 -40.5h227v-81h-454q5 79 27 144t62.5 111.5t99.5 71.5t139 25q64 0 105 -3.5t75 -9.5v-175zM534 0q-34 -6 -75 -9.5t-105 -3.5q-80 0 -139 26.5t-99.5 74t-62.5 113.5t-27 146h454v-82
h-227q7 -23 16.5 -40.5t24.5 -29t37.5 -17.5t55.5 -6q40 0 73.5 1.5t73.5 8.5v-182z" />
    <glyph glyph-name="undef" unicode="&#xe012;" horiz-adv-x="500" 
d="M51 0v754h398v-754h-398zM424 21l4 4v708h-356v-712h352z" />
    <glyph glyph-name="Dotaccent" unicode="&#xe702;" horiz-adv-x="309" 
d="M42 917q0 24 9 44.5t24.5 36.5t36 25t44.5 9t44.5 -9t36 -25t24.5 -36.5t9 -44.5t-9 -44.5t-24.5 -36t-36 -24.5t-44.5 -9t-44.5 9t-36 24.5t-24.5 36t-9 44.5z" />
    <glyph glyph-name="Ring" unicode="&#xe703;" 
d="M407 904q0 -20 -8 -37.5t-21 -31t-31 -21t-37 -7.5q-21 0 -39.5 8t-31.5 21.5t-20.5 31.5t-7.5 38q0 42 28 69.5t70 27.5q20 0 37.5 -7.5t31 -21t21.5 -31.5t8 -39zM351 904q0 18 -12 30.5t-30 12.5q-17 0 -29 -12t-12 -30q0 -17 12.5 -29.5t29.5 -12.5t29 12.5t12 28.5z
" />
    <glyph glyph-name="Circumflex" unicode="&#xe706;" horiz-adv-x="465" 
d="M424 814h-153l-39 68l-43 -68h-129l99 156h173z" />
    <glyph glyph-name="Breve" unicode="&#xe708;" horiz-adv-x="633" 
d="M218 979q14 -35 37 -47.5t65 -12.5q43 0 66 12.5t37 47.5h78q-6 -78 -53 -122.5t-129 -44.5q-78 0 -125 44.5t-55 122.5h79z" />
    <glyph glyph-name="Tilde" unicode="&#xe709;" 
d="M501 967v-16q0 -59 -33 -97t-86 -38q-11 0 -29 6t-38 13t-38 13t-27 6q-29 0 -30 -40h-103q0 74 29.5 111.5t84.5 37.5q15 0 33 -3.5t38 -11.5l34 -14q8 -3 16 -5.5t16 -2.5q29 0 32 41h101z" />
    <glyph glyph-name="Cedilla" unicode="&#xe711;" horiz-adv-x="503" 
d="M414 -120l-159 -150l-82 52l136 166z" />
    <glyph glyph-name="Commaaccent" unicode="&#xe718;" horiz-adv-x="287" 
d="M235 582l-95 -109h-66l61 125v29h-61v123h161v-168z" />
    <glyph glyph-name="Caroncapht" unicode="&#xe719;" horiz-adv-x="417" 
d="M278 623l-76 -87h-53l49 100v24h-49v94h129v-131z" />
    <glyph glyph-name="Dieresiscondensed" unicode="&#xe720;" horiz-adv-x="309" 
d="M322 885q0 -29 -21 -50t-50 -21q-32 0 -52.5 21.5t-20.5 50.5q0 30 21 51t51 21q31 0 51.5 -22t20.5 -51zM131 886q0 -29 -20.5 -50.5t-50.5 -21.5t-50.5 21t-20.5 51q0 31 21 51.5t50 20.5q30 0 50.5 -21.5t20.5 -50.5z" />
    <glyph glyph-name="Circumflexcondensed" unicode="&#xe722;" horiz-adv-x="309" 
d="M329 814h-153l-31 68l-36 -68h-129l91 156h173z" />
    <glyph glyph-name="Acutecondensed" unicode="&#xe723;" horiz-adv-x="309" 
d="M301 985l-95 -171h-114l50 171h159z" />
    <glyph glyph-name="Gravecondensed" unicode="&#xe724;" horiz-adv-x="309" 
d="M13 985h160l49 -171h-114z" />
    <glyph glyph-name="Macroncondensed" unicode="&#xe725;" horiz-adv-x="309" 
d="M0 819v110h309v-110h-309z" />
    <glyph glyph-name="caronascenderht" unicode="&#xe769;" horiz-adv-x="287" 
d="M210 694l-77 -87h-52l49 100v23h-49v95h129v-131z" />
    <glyph glyph-name="dieresiscondensed" unicode="&#xe770;" horiz-adv-x="287" 
d="M-20 672q0 30 21 51t51 21t51 -21t21 -51t-21 -51t-51 -21t-51 21t-21 51zM163 672q0 30 21 51t51 21t51 -21t21 -51t-21 -51t-51 -21t-51 21t-21 51z" />
    <glyph glyph-name="circumflexcondensed" unicode="&#xe772;" horiz-adv-x="286" 
d="M308 600h-144l-32 76l-37 -76h-116l79 156h176z" />
    <glyph glyph-name="acutecondensed" unicode="&#xe773;" horiz-adv-x="287" 
d="M76 600l53 167h158l-99 -167h-112z" />
    <glyph glyph-name="gravecondensed" unicode="&#xe774;" horiz-adv-x="287" 
d="M211 600h-112l-99 167h158z" />
    <glyph glyph-name="macroncondensed" unicode="&#xe775;" horiz-adv-x="287" 
d="M0 618v110h287v-110h-287z" />
    <glyph glyph-name="commaaccentmirrored" unicode="&#xe784;" horiz-adv-x="287" 
d="M79 730l76 87h53l-49 -100v-23h49v-94h-129v130z" />
    <glyph glyph-name="commaaccent" unicode="&#xf6c3;" horiz-adv-x="258" 
d="M198 -183l-76 -87h-53l49 100v24h-49v94h129v-131z" />
    <glyph glyph-name="Acute" unicode="&#xf6c9;" horiz-adv-x="465" 
d="M387 985l-95 -171h-114l50 171h159z" />
    <glyph glyph-name="Caron" unicode="&#xf6ca;" horiz-adv-x="582" 
d="M136 959h157l34 -54l37 54h129l-104 -145h-160z" />
    <glyph glyph-name="Dieresis" unicode="&#xf6cb;" horiz-adv-x="566" 
d="M477 895q0 -33 -24 -57t-57 -24q-35 0 -59 24t-24 58t24 58t58 24t58 -24.5t24 -58.5zM252 896q0 -17 -7 -32t-18 -26t-26 -17.5t-31 -6.5q-33 0 -57 24.5t-24 57.5q0 34 24 58t57 24q34 0 58 -24t24 -58z" />
    <glyph glyph-name="Grave" unicode="&#xf6ce;" horiz-adv-x="465" 
d="M110 985h160l49 -171h-113z" />
    <glyph glyph-name="Hungarumlaut" unicode="&#xf6cf;" horiz-adv-x="641" 
d="M175 814l53 167h139l-91 -167h-101zM363 814l54 167h139l-92 -167h-101z" />
    <glyph glyph-name="Macron" unicode="&#xf6d0;" 
d="M132 842v109h354v-109h-354z" />
    <glyph glyph-name="apple" unicode="&#xf8ff;" horiz-adv-x="578" 
d="M423 234q28 0 51 10.5t41 28.5q-14 -36 -37 -66t-54 -51.5t-67.5 -34t-76.5 -12.5q-71 0 -127.5 34.5t-89.5 90.5h40v154h2l118 -154h65v250h-65v-152h-3l-117 152h-40q33 57 90 91t127 34q40 0 76.5 -12t67.5 -33.5t54 -51.5t36 -66q-35 38 -91 38h-92v-250h92zM396 429
h15q31 0 51 -18t20 -52q0 -36 -21.5 -52.5t-50.5 -16.5h-14v139z" />
    <glyph glyph-name="fi" unicode="&#xfb01;" horiz-adv-x="619" 
d="M574 0h-197v528h197v-528zM377 578v40q0 24 -16 40.5t-40 16.5q-23 0 -40 -16.5t-17 -40.5v-90h70v-158h-70v-370h-196v370h-57v158h57v90q0 46 20 86t54.5 70t80.5 47t98 17q51 0 97 -17t80.5 -47t55 -70t20.5 -86v-40h-197z" />
    <glyph glyph-name="fl" unicode="&#xfb02;" horiz-adv-x="619" 
d="M377 618q0 24 -16 40.5t-40 16.5q-23 0 -40 -16.5t-17 -40.5v-90h70v-158h-70v-370h-196v370h-57v158h57v90q0 46 20 86t54.5 70t80.5 47t98 17q51 0 97 -17t80.5 -47t55 -70t20.5 -86v-618h-197v618z" />
    </font>
</defs>
</svg>
